<svg width="236" height="275" viewBox="0 0 236 275" fill="none" xmlns="http://www.w3.org/2000/svg">
<path d="M40.6819 207.639C55.6087 199.978 66.6803 203.399 76.3419 191.478C70.6247 203.118 85.0823 233.617 72.1592 246.792C69.5305 246.424 67.9391 246.919 66.3963 244.284C64.9158 251.978 63.6514 254.72 58.8319 259.219L53.5674 256.567C44.0086 268.062 34.9487 261.048 23.7273 274.536C26.2723 258.657 24.9394 254.686 29.3504 244.368L24.619 243.304C25.9585 236.046 27.3649 233.234 32.9297 227.009L27.3966 225.513C31.2987 219.149 34.0282 215.741 42.9582 214.421L40.6819 207.639Z" fill="#AB3F0E"/>
<path d="M41.9413 208.893C56.2538 201.574 66.0564 204.84 75.3406 193.491C69.8335 204.562 83.5861 233.484 71.1758 246.034C68.6603 245.692 67.3598 245.274 65.8905 242.777C64.4508 250.088 63.0078 253.588 58.3808 257.874L53.3484 255.371C44.1639 266.316 35.5107 259.681 24.7286 272.523C27.2111 257.436 25.9465 253.668 30.1994 243.856L25.6729 242.86C26.9763 235.963 29.0913 232.431 34.4368 226.504L28.9038 225.007C32.6579 218.952 35.4117 216.201 43.9646 214.921L41.9413 208.893Z" fill="url(#paint0_linear_25_3)"/>
<mask id="mask0_25_3" style="mask-type:alpha" maskUnits="userSpaceOnUse" x="24" y="193" width="53" height="80">
<path d="M41.9413 208.893C56.2538 201.574 66.0564 204.84 75.3406 193.491C69.8335 204.562 83.5861 233.484 71.1758 246.034C68.6603 245.692 67.3598 245.274 65.8905 242.777C64.4508 250.088 63.0078 253.588 58.3808 257.874L53.3484 255.371C44.1639 266.316 35.5107 259.681 24.7286 272.523C27.2111 257.436 25.9465 253.668 30.1994 243.856L25.6729 242.86C26.9763 235.963 29.0913 232.431 34.4368 226.504L28.9038 225.007C32.6579 218.952 35.4117 216.201 43.9646 214.921L41.9413 208.893Z" fill="url(#paint1_linear_25_3)"/>
</mask>
<g mask="url(#mask0_25_3)">
<g opacity="0.5" filter="url(#filter0_f_25_3)">
<path d="M77.8723 189.969C77.2992 189.651 76.726 189.334 76.1528 189.016C75.4713 190.29 74.8218 191.502 74.1377 192.772C62.173 215.303 48.8109 237.059 34.0649 257.882C33.2388 259.063 32.4486 260.19 31.6169 261.371C32.475 260.21 33.2916 259.102 34.1442 257.94C49.3584 237.48 63.2671 215.967 75.7682 193.683C76.482 192.427 77.1612 191.229 77.8723 189.969Z" fill="#581301"/>
<path d="M72.5418 199.916C72.6082 199.724 72.5978 199.516 72.5108 199.339C72.4239 199.161 72.2675 199.027 72.0782 198.968C71.8889 198.909 71.6827 198.929 71.507 199.024C71.3311 199.119 71.2003 199.282 71.141 199.477C71.141 199.477 71.141 199.477 71.141 199.477C70.9344 200.152 70.7568 200.791 70.5869 201.466C66.578 213.868 74.6989 225.274 71.9747 237.303C71.8145 237.964 71.6325 238.594 71.4132 239.247C71.6556 238.602 71.8615 237.977 72.046 237.32C75.195 225.234 67.5985 213.463 71.9395 201.809C72.1262 201.166 72.3201 200.559 72.5418 199.916Z" fill="#581301"/>
<path d="M62.021 217.473C62.05 217.334 62.0295 217.193 61.9626 217.08C61.8958 216.968 61.7879 216.893 61.6644 216.873C61.5408 216.853 61.4121 216.889 61.3079 216.973C61.2037 217.058 61.1326 217.184 61.1089 217.324C61.1089 217.324 61.1089 217.324 61.1089 217.324C61.0347 217.758 60.9792 218.184 60.9394 218.619C60.2236 226.627 65.2011 232.628 64.7799 240.276C64.7492 240.693 64.7005 241.106 64.631 241.523C64.7157 241.108 64.78 240.696 64.8263 240.277C65.5191 232.592 60.8096 226.101 61.8194 218.67C61.8714 218.267 61.9377 217.873 62.021 217.473Z" fill="#581301"/>
<path d="M56.8103 222.948C56.9135 222.909 57.0333 222.928 57.144 223.004C57.2547 223.079 57.3472 223.204 57.4006 223.35C57.4539 223.495 57.4636 223.649 57.4267 223.775C57.3899 223.901 57.3096 223.989 57.2042 224.021C57.2042 224.021 57.2042 224.021 57.2042 224.021C56.8802 224.122 56.5645 224.207 56.2338 224.284C50.3908 225.922 43.4315 221.822 38.4567 225.575C38.1929 225.782 37.9476 226 37.704 226.245C37.9368 225.985 38.1722 225.75 38.4273 225.527C43.2694 221.436 50.4667 225.182 55.901 223.251C56.2119 223.16 56.5076 223.061 56.8103 222.948Z" fill="#581301"/>
<path d="M67.1281 206.544C67.2315 206.506 67.3514 206.525 67.4621 206.601C67.5728 206.676 67.6652 206.801 67.7184 206.946C67.7717 207.091 67.7812 207.245 67.7443 207.37C67.7075 207.496 67.6273 207.585 67.522 207.618C67.522 207.618 67.522 207.618 67.522 207.618C67.1836 207.724 66.8375 207.847 66.5043 207.977C60.3689 210.098 55.7052 216.564 48.6175 216.043C48.2305 215.912 47.8417 215.704 47.4847 215.417C47.8473 215.689 48.236 215.878 48.6191 215.99C55.5628 216.174 59.9315 209.496 66.0935 206.97C66.4301 206.818 66.7818 206.673 67.1281 206.544Z" fill="#581301"/>
<path d="M53.0222 231.288C53.0382 231.218 53.0297 231.147 52.998 231.09C52.9663 231.032 52.9141 230.992 52.8533 230.98C52.7924 230.968 52.7281 230.983 52.675 231.024C52.6218 231.064 52.5841 231.126 52.5697 231.195C52.5697 231.195 52.5697 231.195 52.5697 231.195C52.501 231.527 52.4426 231.848 52.3898 232.181C51.2651 238.123 53.8691 244.004 51.3685 249.626C51.2296 249.925 51.0822 250.209 50.9172 250.496C51.0885 250.214 51.2428 249.933 51.3888 249.637C54.0315 244.048 51.5773 237.975 52.8249 232.241C52.8839 231.919 52.9481 231.608 53.0222 231.288Z" fill="#581301"/>
<path d="M38.801 251.626C38.8074 251.598 38.8039 251.57 38.7912 251.547C38.7786 251.523 38.7577 251.508 38.7334 251.503C38.7091 251.498 38.6835 251.504 38.6622 251.52C38.6409 251.536 38.6258 251.561 38.62 251.589C38.62 251.589 38.62 251.589 38.62 251.589C38.5873 251.745 38.5598 251.895 38.5343 252.052C37.9669 254.845 39.329 257.607 38.0872 260.246C38.0202 260.387 37.9507 260.519 37.8724 260.655C37.9533 260.521 38.0254 260.391 38.0952 260.251C39.394 257.625 38.0918 254.783 38.7083 252.076C38.7362 251.923 38.7661 251.778 38.801 251.626Z" fill="#581301"/>
<path d="M38.4455 251.518C38.468 251.517 38.4902 251.527 38.507 251.547C38.5239 251.568 38.5341 251.596 38.5354 251.627C38.5367 251.657 38.529 251.686 38.514 251.708C38.499 251.73 38.4779 251.743 38.4553 251.744C38.4553 251.744 38.4553 251.744 38.4553 251.744C38.3287 251.749 38.2092 251.749 38.0829 251.745C35.826 251.82 33.8211 249.481 31.6148 250.451C31.496 250.5 31.3862 250.552 31.2699 250.614C31.385 250.549 31.4939 250.493 31.6121 250.441C33.8113 249.398 35.8924 251.685 38.0821 251.53C38.2054 251.53 38.322 251.526 38.4455 251.518Z" fill="#581301"/>
<path d="M47.7521 238.509C47.8073 238.505 47.8635 238.531 47.9087 238.582C47.9538 238.633 47.984 238.705 47.9927 238.781C48.0014 238.858 47.9877 238.932 47.9547 238.987C47.9216 239.043 47.8718 239.074 47.8164 239.076C47.8164 239.076 47.8164 239.076 47.8164 239.076C47.5979 239.083 47.3849 239.082 47.1657 239.073C43.2443 239.085 39.434 235.531 35.705 236.908C35.5073 236.991 35.3176 237.086 35.1279 237.199C35.1279 237.199 35.1279 237.199 35.1279 237.199C35.3141 237.078 35.5009 236.973 35.6964 236.881C39.4048 235.326 43.3609 238.739 47.1262 238.534C47.3376 238.534 47.5424 238.525 47.7521 238.509Z" fill="#581301"/>
</g>
<g opacity="0.5">
<path d="M77.8724 189.969C77.2992 189.652 76.726 189.334 76.1528 189.016C75.4713 190.29 74.8218 191.502 74.1377 192.772C62.173 215.303 48.811 237.06 34.065 257.882C33.2389 259.063 32.4486 260.19 31.617 261.371C32.475 260.21 33.2916 259.102 34.1443 257.941C49.3584 237.48 63.2672 215.967 75.7682 193.683C76.482 192.427 77.1612 191.229 77.8724 189.969Z" fill="#581301"/>
<path d="M72.5419 199.916C72.6082 199.724 72.5978 199.516 72.5108 199.339C72.4239 199.161 72.2676 199.027 72.0782 198.968C71.8889 198.909 71.6827 198.929 71.507 199.024C71.3312 199.119 71.2003 199.282 71.141 199.477C71.141 199.477 71.141 199.477 71.141 199.477C70.9345 200.152 70.7568 200.791 70.5869 201.466C66.578 213.868 74.6989 225.274 71.9747 237.303C71.8146 237.964 71.6325 238.594 71.4132 239.247C71.6556 238.602 71.8615 237.978 72.0461 237.32C75.195 225.234 67.5985 213.463 71.9395 201.81C72.1262 201.166 72.3202 200.559 72.5419 199.916Z" fill="#581301"/>
<path d="M62.0211 217.473C62.05 217.334 62.0296 217.193 61.9626 217.08C61.8958 216.968 61.788 216.893 61.6644 216.873C61.5408 216.853 61.4121 216.889 61.3079 216.973C61.2037 217.058 61.1327 217.184 61.1089 217.324C61.1089 217.324 61.1089 217.324 61.1089 217.324C61.0347 217.758 60.9793 218.185 60.9394 218.619C60.2237 226.627 65.2011 232.628 64.7799 240.276C64.7493 240.693 64.7005 241.106 64.6311 241.523C64.7157 241.108 64.78 240.696 64.8263 240.277C65.5192 232.592 60.8096 226.101 61.8194 218.67C61.8714 218.267 61.9377 217.873 62.0211 217.473Z" fill="#581301"/>
<path d="M56.8103 222.948C56.9135 222.909 57.0333 222.928 57.144 223.004C57.2547 223.079 57.3473 223.204 57.4006 223.35C57.454 223.495 57.4636 223.649 57.4267 223.775C57.3899 223.901 57.3096 223.989 57.2042 224.022C57.2042 224.022 57.2042 224.022 57.2042 224.022C56.8802 224.122 56.5645 224.207 56.2338 224.284C50.3908 225.922 43.4315 221.822 38.4567 225.575C38.1929 225.782 37.9477 226 37.704 226.246C37.9369 225.985 38.1722 225.75 38.4274 225.527C43.2694 221.436 50.4667 225.182 55.901 223.251C56.212 223.16 56.5076 223.061 56.8103 222.948Z" fill="#581301"/>
<path d="M67.1282 206.544C67.2315 206.506 67.3514 206.526 67.4621 206.601C67.5728 206.676 67.6652 206.801 67.7185 206.946C67.7717 207.091 67.7812 207.245 67.7444 207.37C67.7075 207.497 67.6274 207.585 67.522 207.618C67.522 207.618 67.522 207.618 67.522 207.618C67.1836 207.724 66.8375 207.847 66.5044 207.977C60.3689 210.099 55.7052 216.564 48.6175 216.043C48.2305 215.912 47.8417 215.704 47.4848 215.417C47.8473 215.689 48.236 215.878 48.6191 215.99C55.5629 216.174 59.9315 209.496 66.0936 206.97C66.4301 206.818 66.7818 206.673 67.1282 206.544Z" fill="#581301"/>
<path d="M53.0222 231.288C53.0382 231.218 53.0297 231.147 52.998 231.09C52.9663 231.032 52.9141 230.992 52.8533 230.98C52.7925 230.968 52.7281 230.983 52.675 231.024C52.6218 231.064 52.5841 231.126 52.5697 231.195C52.5697 231.195 52.5697 231.195 52.5697 231.195C52.5011 231.527 52.4426 231.848 52.3898 232.181C51.2652 238.123 53.8692 244.004 51.3685 249.626C51.2297 249.925 51.0822 250.209 50.9172 250.496C51.0885 250.214 51.2428 249.933 51.3888 249.638C54.0315 244.048 51.5773 237.975 52.825 232.242C52.8839 231.919 52.9482 231.608 53.0222 231.288Z" fill="#581301"/>
<path d="M38.801 251.626C38.8074 251.598 38.8039 251.57 38.7912 251.547C38.7786 251.524 38.7577 251.508 38.7334 251.503C38.7092 251.498 38.6835 251.504 38.6622 251.52C38.6409 251.536 38.6258 251.561 38.62 251.589C38.62 251.589 38.62 251.589 38.62 251.589C38.5874 251.745 38.5598 251.895 38.5343 252.052C37.9669 254.845 39.329 257.607 38.0872 260.247C38.0202 260.387 37.9508 260.519 37.8724 260.655C37.9533 260.521 38.0255 260.391 38.0953 260.251C39.394 257.625 38.0918 254.783 38.7083 252.076C38.7362 251.923 38.7662 251.778 38.801 251.626Z" fill="#581301"/>
<path d="M38.4455 251.518C38.4681 251.517 38.4902 251.527 38.507 251.547C38.5239 251.568 38.5341 251.596 38.5354 251.627C38.5368 251.657 38.5291 251.686 38.514 251.708C38.499 251.73 38.4779 251.743 38.4554 251.744C38.4554 251.744 38.4554 251.744 38.4554 251.744C38.3287 251.749 38.2092 251.749 38.0829 251.745C35.8261 251.82 33.8211 249.481 31.6148 250.451C31.496 250.501 31.3862 250.553 31.2699 250.614C31.3851 250.549 31.4939 250.493 31.6121 250.441C33.8113 249.398 35.8924 251.685 38.0821 251.53C38.2055 251.53 38.3221 251.527 38.4455 251.518Z" fill="#581301"/>
<path d="M47.7521 238.509C47.8073 238.505 47.8636 238.531 47.9087 238.582C47.9538 238.633 47.9841 238.705 47.9927 238.781C48.0014 238.858 47.9877 238.932 47.9547 238.987C47.9216 239.043 47.8719 239.074 47.8164 239.076C47.8164 239.076 47.8164 239.076 47.8164 239.076C47.5979 239.083 47.3849 239.082 47.1658 239.073C43.2443 239.085 39.434 235.531 35.705 236.908C35.5074 236.991 35.3177 237.086 35.128 237.199C35.128 237.199 35.128 237.199 35.128 237.199C35.3141 237.078 35.5009 236.973 35.6965 236.881C39.4049 235.326 43.3609 238.739 47.1262 238.534C47.3376 238.534 47.5424 238.525 47.7521 238.509Z" fill="#581301"/>
</g>
<path opacity="0.75" d="M43.2007 210.147C58.0139 201.822 69.3328 205.569 78.0968 189.212C62.265 191.172 31.0073 196.8 30.6068 197.605C30.2063 198.41 15.0695 220.427 7.55115 231.335L23.9854 277.803C26.9342 263.981 25.9414 251.154 31.7066 243.35C29.5171 243.042 28.3116 242.843 26.9271 241.601C27.2761 237.41 28.3593 234.536 35.944 225.998L30.4109 224.501C35.1575 219.108 38.1022 216.476 45.2241 216.176L43.2007 210.147Z" fill="#D9D9D9"/>
</g>
<path d="M68.886 189.847C79.1987 176.612 77.9038 165.097 91.4189 157.83C78.916 161.274 51.6524 141.378 36.2966 151.614C36.1671 154.266 35.3842 155.737 37.6842 157.744C29.8493 157.762 26.9193 158.493 21.6005 162.388L23.2231 168.055C10.1453 175.3 15.3452 185.51 7.15256e-07 194.016C16.0742 194.48 19.7271 196.531 30.6872 194.123L30.8487 198.97C38.2296 199.009 41.2549 198.152 48.4086 193.847L48.8463 199.562C55.8266 196.917 59.6837 194.871 62.648 186.345L68.886 189.847Z" fill="#AB3F0E"/>
<path d="M67.8889 188.375C77.7508 175.681 76.3715 165.441 89.2544 158.438C77.3498 161.782 51.5031 142.872 36.8574 152.722C36.7234 155.257 36.8913 156.613 39.0704 158.522C31.6192 158.572 27.9111 159.336 22.8369 163.082L24.3568 168.493C11.8897 175.473 16.793 185.213 2.16448 193.408C17.4495 193.786 20.915 195.731 31.3483 193.385L31.482 198.018C38.5012 198.025 42.3659 196.606 49.1869 192.461L49.6246 198.176C56.2738 195.618 59.4899 193.426 62.3441 185.262L67.8889 188.375Z" fill="url(#paint2_linear_25_3)"/>
<mask id="mask1_25_3" style="mask-type:alpha" maskUnits="userSpaceOnUse" x="2" y="149" width="88" height="50">
<path d="M67.8889 188.375C77.7508 175.681 76.3715 165.441 89.2544 158.438C77.3498 161.782 51.5031 142.872 36.8574 152.722C36.7234 155.257 36.8913 156.613 39.0704 158.522C31.6192 158.572 27.9111 159.336 22.8369 163.082L24.3568 168.493C11.8897 175.473 16.793 185.213 2.16448 193.408C17.4495 193.786 20.915 195.731 31.3483 193.385L31.482 198.018C38.5012 198.025 42.3659 196.606 49.1869 192.461L49.6246 198.176C56.2738 195.618 59.4899 193.426 62.3441 185.262L67.8889 188.375Z" fill="url(#paint3_linear_25_3)"/>
</mask>
<g mask="url(#mask1_25_3)">
<g opacity="0.5" filter="url(#filter1_f_25_3)">
<path d="M93.1868 156.608C93.392 157.231 93.5972 157.853 93.8023 158.475C92.4232 158.907 91.1113 159.319 89.7362 159.754C65.3682 167.303 41.4996 176.369 18.2903 186.969C16.9759 187.56 15.7213 188.126 14.4061 188.723C15.7071 188.097 16.9475 187.501 18.2479 186.88C41.1888 175.753 64.9199 166.104 89.1455 157.982C90.5124 157.515 91.816 157.072 93.1868 156.608Z" fill="#581301"/>
<path d="M82.4202 159.988C82.6212 159.959 82.823 160.008 82.9814 160.127C83.1397 160.245 83.2417 160.424 83.2647 160.621C83.2876 160.818 83.2296 161.017 83.103 161.171C82.9765 161.326 82.7919 161.425 82.59 161.447C82.59 161.447 82.59 161.447 82.59 161.447C81.8878 161.523 81.2271 161.579 80.5323 161.62C67.6002 163.243 57.9105 153.136 45.5843 153.567C44.9052 153.601 44.2521 153.662 43.5696 153.756C44.2485 153.638 44.9003 153.552 45.5805 153.494C58.0419 152.656 68.1887 162.316 80.4472 160.227C81.1138 160.163 81.7471 160.086 82.4202 159.988Z" fill="#581301"/>
<path d="M63.2073 167.047C63.3493 167.044 63.4843 167.091 63.5824 167.178C63.6806 167.264 63.7339 167.384 63.7307 167.509C63.7275 167.635 63.668 167.754 63.5655 167.841C63.4629 167.927 63.3256 167.974 63.1837 167.971C63.1837 167.971 63.1837 167.971 63.1837 167.971C62.7431 167.963 62.3142 167.938 61.8801 167.896C53.879 167.104 48.9128 161.094 41.3206 160.08C40.9053 160.033 40.4901 160.003 40.0675 159.994C40.4906 159.988 40.9081 160.002 41.3276 160.034C49.0076 160.788 54.505 166.627 61.9937 167.022C62.3998 167.046 62.799 167.054 63.2073 167.047Z" fill="#581301"/>
<path d="M56.8567 171.144C56.9141 171.05 56.9172 170.929 56.8637 170.806C56.8103 170.683 56.7047 170.569 56.5717 170.489C56.4387 170.41 56.2898 170.372 56.1592 170.384C56.0285 170.397 55.9269 170.459 55.8752 170.557C55.8752 170.557 55.8752 170.557 55.8752 170.557C55.7157 170.856 55.5734 171.151 55.4365 171.461C52.7362 176.896 55.4656 184.498 50.8496 188.685C50.5974 188.906 50.3369 189.106 50.0503 189.299C50.3498 189.119 50.6242 188.932 50.8916 188.723C55.8137 184.729 53.4772 176.959 56.389 171.981C56.5364 171.692 56.6886 171.42 56.8567 171.144Z" fill="#581301"/>
<path d="M74.8978 164.07C74.9549 163.975 74.9577 163.854 74.9042 163.731C74.8508 163.608 74.7455 163.494 74.6128 163.415C74.4802 163.335 74.3315 163.297 74.2009 163.31C74.0703 163.323 73.9684 163.385 73.9163 163.482C73.9163 163.482 73.9163 163.482 73.9163 163.482C73.7493 163.795 73.5637 164.112 73.3739 164.415C70.1441 170.047 62.9216 173.422 62.1102 180.482C62.1671 180.887 62.299 181.307 62.5144 181.712C62.3149 181.305 62.2018 180.888 62.1631 180.49C63.278 173.634 70.6545 170.589 74.2858 165.006C74.4979 164.704 74.7069 164.386 74.8978 164.07Z" fill="#581301"/>
<path d="M47.9561 173.309C48.027 173.306 48.0954 173.328 48.1462 173.37C48.1969 173.412 48.2259 173.47 48.2267 173.532C48.2276 173.595 48.2002 173.655 48.1505 173.699C48.1009 173.744 48.0332 173.77 47.9622 173.771C47.9622 173.771 47.9622 173.771 47.9622 173.771C47.6237 173.776 47.2972 173.774 46.9602 173.764C40.9129 173.759 35.6213 170.103 29.6312 171.511C29.3116 171.591 29.0048 171.683 28.692 171.792C29.0015 171.676 29.3058 171.577 29.6238 171.489C35.608 169.936 41.1162 173.48 46.9822 173.325C47.3104 173.327 47.6277 173.322 47.9561 173.309Z" fill="#581301"/>
<path d="M25.3208 183.484C25.3492 183.483 25.3765 183.492 25.3968 183.508C25.4172 183.525 25.4287 183.549 25.4291 183.573C25.4294 183.598 25.4184 183.622 25.3986 183.64C25.3787 183.658 25.3516 183.668 25.3232 183.669C25.3232 183.669 25.3232 183.669 25.3232 183.669C25.1635 183.672 25.0117 183.671 24.8526 183.667C22.0023 183.702 19.5435 181.849 16.7184 182.576C16.5675 182.616 16.4249 182.659 16.2769 182.711C16.4235 182.656 16.5651 182.61 16.7154 182.567C19.5377 181.782 22.087 183.591 24.861 183.491C25.0167 183.492 25.1649 183.49 25.3208 183.484Z" fill="#581301"/>
<path d="M25.3602 183.853C25.3659 183.831 25.3598 183.808 25.343 183.787C25.3262 183.767 25.3 183.752 25.2705 183.745C25.241 183.738 25.2106 183.74 25.1862 183.751C25.1618 183.761 25.1454 183.78 25.1404 183.802C25.1404 183.802 25.1404 183.802 25.1404 183.802C25.1121 183.925 25.0896 184.042 25.07 184.167C24.5745 186.37 26.4984 188.777 25.1332 190.763C25.0629 190.871 24.9913 190.969 24.9087 191.072C24.9945 190.971 25.0694 190.874 25.1433 190.768C26.5777 188.802 24.7197 186.33 25.2806 184.208C25.3034 184.087 25.329 183.973 25.3602 183.853Z" fill="#581301"/>
<path d="M39.8778 177.139C39.8923 177.085 39.8774 177.025 39.8356 176.971C39.7939 176.917 39.7288 176.874 39.6554 176.851C39.5819 176.829 39.5062 176.828 39.4457 176.85C39.3852 176.872 39.3448 176.915 39.3327 176.97C39.3327 176.97 39.3327 176.97 39.3327 176.97C39.2849 177.183 39.2462 177.392 39.214 177.609C38.4702 181.46 41.2509 185.866 39.2021 189.273C39.0841 189.452 38.9546 189.62 38.8082 189.785C38.8082 189.785 38.8082 189.785 38.8082 189.785C38.9625 189.625 39.1003 189.461 39.2271 189.286C41.4471 185.933 38.8322 181.41 39.7362 177.749C39.7764 177.541 39.8227 177.342 39.8778 177.139Z" fill="#581301"/>
</g>
<g opacity="0.5">
<path d="M93.1867 156.608C93.3919 157.231 93.5971 157.853 93.8023 158.475C92.4232 158.907 91.1112 159.319 89.7361 159.754C65.3681 167.303 41.4995 176.369 18.2903 186.969C16.9758 187.56 15.7213 188.126 14.406 188.723C15.707 188.097 16.9474 187.501 18.2478 186.88C41.1887 175.753 64.9198 166.104 89.1454 157.982C90.5124 157.515 91.816 157.072 93.1867 156.608Z" fill="#581301"/>
<path d="M82.4202 159.988C82.6212 159.959 82.8229 160.008 82.9813 160.127C83.1396 160.245 83.2416 160.424 83.2646 160.621C83.2875 160.818 83.2295 161.017 83.103 161.171C82.9764 161.326 82.7918 161.425 82.5899 161.447C82.5899 161.447 82.5899 161.447 82.5899 161.447C81.8877 161.523 81.227 161.579 80.5322 161.62C67.6001 163.243 57.9105 153.136 45.5842 153.567C44.9052 153.601 44.252 153.662 43.5695 153.756C44.2484 153.638 44.9002 153.552 45.5804 153.494C58.0419 152.656 68.1886 162.316 80.4472 160.227C81.1138 160.163 81.7471 160.086 82.4202 159.988Z" fill="#581301"/>
<path d="M63.2072 167.047C63.3492 167.044 63.4842 167.091 63.5823 167.178C63.6805 167.264 63.7338 167.384 63.7306 167.509C63.7274 167.635 63.668 167.754 63.5654 167.841C63.4628 167.927 63.3255 167.974 63.1836 167.971C63.1836 167.971 63.1836 167.971 63.1836 167.971C62.743 167.963 62.3141 167.938 61.88 167.896C53.8789 167.104 48.9127 161.094 41.3205 160.08C40.9052 160.033 40.49 160.003 40.0674 159.994C40.4905 159.988 40.9081 160.002 41.3275 160.034C49.0075 160.788 54.505 166.627 61.9936 167.022C62.3998 167.046 62.7989 167.054 63.2072 167.047Z" fill="#581301"/>
<path d="M56.8566 171.144C56.914 171.05 56.9171 170.929 56.8636 170.806C56.8102 170.683 56.7046 170.569 56.5716 170.489C56.4387 170.41 56.2897 170.372 56.1591 170.384C56.0285 170.397 55.9269 170.459 55.8751 170.557C55.8751 170.557 55.8751 170.557 55.8751 170.557C55.7156 170.856 55.5733 171.151 55.4365 171.461C52.7361 176.896 55.4655 184.498 50.8496 188.685C50.5973 188.906 50.3369 189.106 50.0502 189.299C50.3497 189.119 50.6242 188.932 50.8915 188.723C55.8136 184.729 53.4771 176.959 56.3889 171.981C56.5363 171.692 56.6885 171.42 56.8566 171.144Z" fill="#581301"/>
<path d="M74.8978 164.07C74.9548 163.975 74.9576 163.854 74.9042 163.731C74.8508 163.608 74.7454 163.494 74.6128 163.415C74.4801 163.335 74.3314 163.297 74.2008 163.31C74.0702 163.323 73.9683 163.385 73.9162 163.482C73.9162 163.482 73.9162 163.482 73.9162 163.482C73.7492 163.795 73.5636 164.112 73.3738 164.415C70.1441 170.047 62.9216 173.422 62.1101 180.482C62.167 180.887 62.2989 181.307 62.5143 181.712C62.3149 181.305 62.2018 180.888 62.1631 180.49C63.2779 173.634 70.6544 170.589 74.2857 165.006C74.4978 164.704 74.7068 164.386 74.8978 164.07Z" fill="#581301"/>
<path d="M47.956 173.309C48.0269 173.306 48.0953 173.328 48.1461 173.37C48.1969 173.412 48.2258 173.47 48.2267 173.532C48.2275 173.595 48.2001 173.655 48.1505 173.699C48.1008 173.744 48.0331 173.77 47.9621 173.771C47.9621 173.771 47.9621 173.771 47.9621 173.771C47.6236 173.776 47.2971 173.774 46.9601 173.764C40.9128 173.759 35.6213 170.103 29.6311 171.511C29.3115 171.591 29.0047 171.683 28.6919 171.792C29.0014 171.676 29.3058 171.577 29.6237 171.489C35.608 169.936 41.1161 173.48 46.9821 173.325C47.3103 173.327 47.6276 173.322 47.956 173.309Z" fill="#581301"/>
<path d="M25.3207 183.484C25.3491 183.483 25.3765 183.492 25.3968 183.508C25.4171 183.525 25.4287 183.549 25.429 183.573C25.4293 183.598 25.4184 183.622 25.3985 183.64C25.3787 183.658 25.3516 183.668 25.3232 183.669C25.3232 183.669 25.3232 183.669 25.3232 183.669C25.1634 183.672 25.0117 183.671 24.8525 183.667C22.0022 183.702 19.5434 181.849 16.7183 182.576C16.5674 182.616 16.4248 182.659 16.2768 182.711C16.4235 182.656 16.5651 182.61 16.7153 182.567C19.5376 181.782 22.0869 183.591 24.8609 183.491C25.0166 183.492 25.1648 183.49 25.3207 183.484Z" fill="#581301"/>
<path d="M25.3602 183.853C25.3659 183.831 25.3597 183.808 25.3429 183.787C25.3261 183.767 25.3 183.752 25.2705 183.745C25.241 183.738 25.2106 183.74 25.1862 183.751C25.1617 183.761 25.1453 183.78 25.1403 183.802C25.1403 183.802 25.1403 183.802 25.1403 183.802C25.112 183.925 25.0895 184.042 25.0699 184.167C24.5744 186.37 26.4983 188.777 25.1332 190.763C25.0628 190.871 24.9912 190.969 24.9087 191.072C24.9944 190.971 25.0693 190.874 25.1432 190.768C26.5777 188.802 24.7196 186.33 25.2805 184.208C25.3033 184.087 25.329 183.973 25.3602 183.853Z" fill="#581301"/>
<path d="M39.8777 177.139C39.8922 177.085 39.8773 177.025 39.8356 176.971C39.7939 176.917 39.7288 176.874 39.6553 176.851C39.5818 176.829 39.5061 176.828 39.4456 176.85C39.3851 176.872 39.3447 176.915 39.3326 176.97C39.3326 176.97 39.3326 176.97 39.3326 176.97C39.2848 177.183 39.2462 177.392 39.2139 177.609C38.4701 181.46 41.2508 185.866 39.202 189.273C39.084 189.452 38.9545 189.62 38.8081 189.785C38.8081 189.785 38.8081 189.785 38.8081 189.785C38.9624 189.625 39.1002 189.461 39.227 189.286C41.447 185.933 38.8321 181.41 39.7361 177.749C39.7764 177.541 39.8227 177.342 39.8777 177.139Z" fill="#581301"/>
</g>
<path opacity="0.75" d="M37.3354 153.049C58.7909 144.452 79.1131 165.586 95.1616 156.27C80.6601 149.623 47.1699 138.083 46.4061 138.558C45.6424 139.033 21.1978 149.818 9.07094 155.152L-1.34978 203.326C8.419 193.113 2.98105 199.771 11.9859 196.158C10.2848 194.746 4.61028 194.653 4.08456 192.869C15.627 185.588 13.1948 175.621 24.9284 169.02L23.3987 163.574C28.5695 158.449 37.2588 159.314 40.173 159.23C37.3059 156.667 36.4151 155.645 37.3354 153.049Z" fill="#D9D9D9"/>
</g>
<g filter="url(#filter2_d_25_3)">
<path d="M157.399 1.45752C158.2 0.790252 159.388 0.861348 160.105 1.61377L160.252 1.78564L160.865 2.59717C167.093 10.9113 169.979 16.8827 172.03 27.4087C172.031 27.4147 172.032 27.4173 172.032 27.4175C172.035 27.4201 172.047 27.4299 172.071 27.437C172.095 27.444 172.12 27.4451 172.141 27.4409C172.159 27.4372 172.174 27.4291 172.19 27.4146C173.636 26.0973 175.051 25.3371 177.104 24.7349L177.327 24.6831C178.36 24.5042 179.323 25.1862 179.559 26.1724L179.598 26.3882L179.712 27.3374C180.839 37.0177 180.242 43.1083 177.61 52.7524C178.817 52.9113 179.701 52.8656 180.504 52.6079C181.326 52.3442 182.155 51.8298 183.202 50.9028C183.487 50.6504 183.855 50.4663 184.27 50.4136L184.652 50.3706C185.527 50.2844 186.29 50.3011 186.98 50.4487C187.788 50.6214 188.446 50.9619 189.044 51.439C189.11 51.4913 189.197 51.507 189.265 51.4917C189.294 51.4851 189.307 51.4758 189.309 51.4741H189.308C189.307 51.4749 189.309 51.4726 189.312 51.4653C190.32 48.2901 191.616 45.3201 194.793 42.7192L194.938 42.6108C195.633 42.1418 196.528 42.1892 197.179 42.6558L197.313 42.7622L200.889 45.8267H200.891C200.893 45.8265 200.895 45.8254 200.896 45.8247C200.897 45.8243 200.9 45.8236 200.902 45.8208L201.532 45.1372C204.685 41.7608 207.843 38.9933 211.38 36.3726C212.751 35.357 214.633 36.4292 214.527 38.0942C213.966 46.938 213.092 52.6579 210.135 61.6479C210.134 61.6513 210.133 61.6528 210.133 61.6528C210.133 61.6549 210.136 61.6633 210.145 61.6753C210.165 61.7034 210.199 61.7242 210.239 61.7271C211.561 61.8201 212.536 62.1481 213.564 62.8228C214.403 63.3732 214.611 64.4259 214.244 65.2437C209.609 75.5665 205.447 80.8494 198.301 87.4897C198.293 87.4968 198.294 87.4981 198.296 87.4937C198.298 87.4898 198.298 87.4889 198.298 87.4927C198.297 87.504 198.297 87.5403 198.321 87.5884C198.346 87.6365 198.378 87.6658 198.399 87.6782C198.408 87.6834 198.414 87.6855 198.416 87.686C198.417 87.6863 198.423 87.6869 198.436 87.6851C206.534 86.4798 212.062 88.2425 220.019 90.3521C221.059 90.6279 221.69 91.6806 221.459 92.7231C219.846 100.015 218.336 105.27 215.662 109.575C212.968 113.912 209.148 117.202 203.084 120.705C203.074 120.711 203.075 120.712 203.073 120.715C203.069 120.724 203.062 120.75 203.066 120.791C203.071 120.831 203.086 120.867 203.104 120.891C203.119 120.912 203.135 120.925 203.157 120.933C205.721 121.9 207.52 123.373 209.657 126.107C210.313 126.946 210.176 128.139 209.385 128.821C202.05 135.144 196.79 137.949 186.991 141.603C186.436 141.81 185.816 141.756 185.309 141.473C180.035 138.536 176.169 137.126 172.619 136.887C169.089 136.65 165.749 137.563 161.503 139.525C158.361 143.518 156.646 146.86 155.812 150.5C154.974 154.164 155.01 158.208 155.501 163.654C155.537 164.051 155.452 164.461 155.253 164.816C153.574 167.802 152.072 169.912 150.36 171.528C148.638 173.154 146.753 174.236 144.379 175.238C143.524 175.598 142.54 175.312 142.005 174.568C139.158 170.611 137.632 167.601 136.325 161.767C136.324 161.761 136.322 161.759 136.322 161.758C136.322 161.758 136.322 161.757 136.321 161.756C136.319 161.754 136.313 161.75 136.303 161.747C136.292 161.743 136.285 161.743 136.284 161.744C136.283 161.744 136.282 161.746 136.279 161.748C130.338 166.916 125.448 170.048 120.478 171.474C115.484 172.907 110.522 172.586 104.504 171.075C103.018 170.701 102.536 168.894 103.526 167.8C106.685 164.311 108.823 161.532 109.931 158.548C111.021 155.612 111.148 152.375 110.056 147.911C108.809 147.47 107.833 147.434 107.012 147.616C106.174 147.801 105.41 148.232 104.621 148.862C103.819 149.502 103.056 150.294 102.171 151.181C101.305 152.049 100.345 152.985 99.2227 153.804C96.9296 155.478 94.0001 156.635 89.7305 156.104C85.5232 155.581 80.0677 153.426 72.6465 148.654C71.652 148.014 71.3706 146.58 72.21 145.635L75.9639 141.413C75.9637 141.412 75.9632 141.411 75.9629 141.41C75.9613 141.405 75.959 141.402 75.959 141.402C75.958 141.402 75.9559 141.401 75.9541 141.401C68.1474 139.441 63.4295 137.531 56.6758 133.293C55.4926 132.551 55.4258 130.854 56.543 130.019L57.834 129.069C60.7629 126.952 63.1859 125.493 66.5293 124.03C66.5346 124.027 66.5383 124.025 66.54 124.024L66.5449 124.019C66.5484 124.013 66.555 123.997 66.5547 123.973C66.5544 123.949 66.5473 123.935 66.5449 123.931C66.5451 123.931 66.5419 123.929 66.5332 123.925C59.1058 120.965 54.8449 117.97 49.1504 112.19C48.2297 111.255 48.4511 109.707 49.583 109.06L52.2334 107.545V107.538L52.2324 107.537C52.232 107.536 52.2317 107.535 52.2305 107.534C44.7729 100.245 41.1689 95.1626 36.7266 86.2339C36.1106 84.9959 36.9135 83.5261 38.2812 83.3667C48.6617 82.1591 55.0734 82.0036 65.5518 83.3804L65.5537 83.3813H65.5547C65.555 83.3813 65.5568 83.38 65.5586 83.3784L65.5596 83.3774V79.9517C65.5598 78.8766 66.4121 77.9983 67.4736 77.9614L67.6885 77.9653L68.7119 78.0474C79.1736 78.9797 86.1522 82.4072 95.0635 88.0894C95.0645 88.09 95.0655 88.0908 95.0664 88.0913C95.0794 88.0853 95.1044 88.0716 95.1309 88.0405C95.1593 88.0071 95.1685 87.978 95.1719 87.9644C95.1708 87.9631 95.1693 87.9619 95.168 87.9604C86.088 77.6838 80.7847 69.4719 75.9092 55.1978C75.467 53.9029 76.4306 52.5592 77.7969 52.5591H87.7422L87.7432 52.5581C87.7444 52.5564 87.7465 52.5544 87.748 52.5513C87.7531 52.5411 87.7541 52.5321 87.7539 52.5288L87.7529 52.5269C87.7527 52.5263 87.7518 52.5226 87.7471 52.5161C84.4831 48.0381 83.0308 44.7206 81.4727 39.6519C81.0767 38.3637 82.047 37.0758 83.3809 37.0757H86.4785L86.4795 37.0747C86.4813 37.0725 86.4823 37.0703 86.4824 37.0698V37.0688C86.4824 37.0683 86.4816 37.0671 86.4814 37.0659C84.9115 27.8984 84.6675 22.291 85.1758 13.4771C85.2554 12.0958 86.6829 11.2177 87.9404 11.7593L88.0615 11.8159L89.0898 12.3472C94.106 14.9743 97.2427 17.2099 101.434 20.9585C101.435 20.9597 101.436 20.961 101.437 20.9614H101.444L101.445 20.9604H101.446L101.794 20.2661L101.897 20.0825C102.421 19.2628 103.478 18.9274 104.382 19.3374L104.573 19.436L105.323 19.8901C108.956 22.1469 110.887 24.2687 112.969 27.6167C112.972 27.6221 112.975 27.6246 112.976 27.6255C112.977 27.6263 112.978 27.6275 112.979 27.6284C112.983 27.6305 112.993 27.6333 113.006 27.6333C113.019 27.6333 113.03 27.6303 113.035 27.6274C113.038 27.6258 113.042 27.623 113.049 27.6128C114.056 26.004 115.014 24.7896 116.528 23.2739L116.681 23.1362C117.47 22.4944 118.629 22.5629 119.343 23.3003C126.884 31.0886 130.025 38.2628 133.112 47.3198C133.113 47.3208 133.113 47.3219 133.113 47.3228C133.123 47.3252 133.142 47.3309 133.17 47.3267C133.202 47.3217 133.221 47.31 133.229 47.3042C133.23 47.3014 133.23 47.2978 133.23 47.2935C133.534 38.8184 134.556 32.5104 137.192 23.0054L137.24 22.8569C137.506 22.1279 138.187 21.5816 139.017 21.5552C140.305 21.5144 141.398 21.6319 142.418 21.9507C143.439 22.2698 144.336 22.7741 145.249 23.4438C145.264 23.455 145.277 23.4598 145.291 23.4614C145.307 23.4633 145.327 23.4614 145.345 23.4546C145.363 23.4477 145.372 23.4391 145.375 23.436C145.375 23.4356 145.377 23.4341 145.379 23.4233C146.086 19.1877 147.123 15.7252 148.969 12.3071C150.808 8.90015 153.427 5.58552 157.234 1.61279L157.399 1.45752Z" fill="url(#paint4_linear_25_3)" stroke="#822008" stroke-width="2"/>
<g filter="url(#filter3_f_25_3)">
<path d="M162.607 132.313C162.095 131.891 161.584 131.469 161.072 131.047C160.497 131.754 159.949 132.417 159.367 133.109C149.439 145.714 135.563 154.951 119.822 158.936C118.951 159.194 118.11 159.438 117.232 159.687C118.118 159.47 118.968 159.258 119.848 159.032C135.665 155.675 150.302 146.733 160.805 134.335C161.42 133.656 161.999 133.006 162.607 132.313Z" fill="#581301"/>
<path d="M161.194 134.589C160.976 133.963 160.759 133.337 160.541 132.711C161.395 132.422 162.203 132.143 163.051 131.844C178.19 126.94 191.895 118.172 202.973 106.577C203.614 105.936 204.219 105.326 204.854 104.678C204.243 105.349 203.662 105.982 203.045 106.646C192.45 118.619 178.803 128.106 163.694 133.62C162.849 133.953 162.044 134.265 161.194 134.589Z" fill="#581301"/>
<path d="M139.434 124.881C139.626 124.248 139.818 123.615 140.009 122.982C138.38 122.513 136.827 122.066 135.203 121.593C106.396 113.407 78.1358 103.422 50.5577 91.7421C48.9948 91.0902 47.5065 90.4674 45.9429 89.8096C47.4932 90.4977 48.9681 91.1508 50.5179 91.833C77.8438 104.054 105.975 114.628 134.651 123.396C136.267 123.901 137.813 124.381 139.434 124.881Z" fill="#581301"/>
<path d="M134.902 124.162C135.102 124.145 135.286 124.05 135.413 123.897C135.54 123.744 135.6 123.546 135.579 123.347C135.558 123.148 135.459 122.966 135.304 122.842C135.148 122.718 134.948 122.662 134.749 122.685C134.749 122.685 134.749 122.685 134.749 122.685C133.858 122.789 133.007 122.91 132.125 123.058C116.274 125.146 103.581 137.8 87.4151 135.534C86.5492 135.403 85.7165 135.237 84.8579 135.025C85.7099 135.261 86.5382 135.451 87.4023 135.607C103.597 138.343 116.937 125.966 132.345 124.452C133.206 124.332 134.036 124.238 134.902 124.162Z" fill="#581301"/>
<path d="M107.554 113.99C107.692 113.987 107.821 113.933 107.915 113.839C108.008 113.745 108.057 113.618 108.052 113.488C108.047 113.357 107.988 113.235 107.887 113.148C107.786 113.061 107.653 113.018 107.516 113.026C107.516 113.026 107.516 113.026 107.516 113.026C107.086 113.051 106.674 113.086 106.247 113.132C98.5724 113.714 92.3051 119.325 84.6558 117.892C84.2459 117.813 83.8549 117.72 83.4503 117.605C83.8494 117.735 84.2365 117.844 84.644 117.939C92.2901 119.678 99.0084 114.265 106.337 114.044C106.748 114.015 107.143 113.998 107.554 113.99Z" fill="#581301"/>
<path d="M98.7495 110.302C98.8226 110.4 98.847 110.527 98.8162 110.657C98.7854 110.787 98.7018 110.909 98.585 110.995C98.4683 111.081 98.3283 111.124 98.1972 111.113C98.0659 111.103 97.9543 111.039 97.8855 110.938C97.8855 110.938 97.8855 110.938 97.8855 110.938C97.6455 110.587 97.4252 110.239 97.2082 109.874C93.0705 103.481 94.4935 94.3594 88.4808 89.4585C88.1524 89.2023 87.8172 88.9703 87.4549 88.7483C87.8275 88.9559 88.1742 89.1743 88.5154 89.418C94.7969 94.1122 93.7889 103.395 98.0555 109.309C98.279 109.652 98.5051 109.975 98.7495 110.302Z" fill="#581301"/>
<path d="M115.64 115.933C115.714 116.03 115.738 116.158 115.707 116.288C115.676 116.418 115.593 116.54 115.476 116.626C115.359 116.712 115.219 116.754 115.088 116.744C114.957 116.733 114.845 116.67 114.776 116.569C114.776 116.569 114.776 116.569 114.776 116.569C114.537 116.217 114.316 115.87 114.099 115.504C109.962 109.112 111.385 99.9898 105.372 95.089C105.043 94.8327 104.708 94.6007 104.346 94.3787C104.718 94.5863 105.065 94.8047 105.406 95.0484C111.688 99.7426 110.68 109.025 114.947 114.94C115.17 115.282 115.396 115.605 115.64 115.933Z" fill="#581301"/>
<path d="M87.4306 107.186C87.4992 107.186 87.5649 107.161 87.6132 107.116C87.6616 107.07 87.6886 107.008 87.6883 106.943C87.6881 106.879 87.6606 106.817 87.612 106.772C87.5633 106.727 87.4974 106.703 87.4288 106.704C87.4288 106.704 87.4288 106.704 87.4288 106.704C87.0599 106.711 86.7088 106.726 86.3415 106.752C79.7702 106.972 74.1398 111.685 67.5887 110.128C67.237 110.046 66.9052 109.954 66.5593 109.844C66.9023 109.962 67.2318 110.061 67.5821 110.151C74.1226 111.862 79.983 107.253 86.3699 107.209C86.7287 107.192 87.0712 107.185 87.4306 107.186Z" fill="#581301"/>
<path d="M59.0647 95.6269C59.0922 95.627 59.1184 95.6168 59.1378 95.5986C59.1571 95.5804 59.1679 95.5556 59.1678 95.5297C59.1677 95.5039 59.1567 95.4792 59.1373 95.4613C59.1178 95.4433 59.0915 95.4336 59.064 95.4341C59.064 95.4341 59.064 95.4341 59.064 95.4341C58.8901 95.437 58.7264 95.4437 58.5535 95.455C55.4557 95.5121 52.8498 97.8947 49.7598 97.081C49.5933 97.0409 49.4397 96.9975 49.276 96.9451C49.4385 97.0006 49.5912 97.047 49.757 97.0904C52.8421 97.9658 55.5444 95.6236 58.5645 95.6379C58.734 95.63 58.8944 95.6266 59.0647 95.6269Z" fill="#581301"/>
<path d="M59.0316 95.1937C59.0411 95.2165 59.0398 95.2424 59.0277 95.2658C59.0156 95.2892 58.9938 95.3081 58.9672 95.3184C58.9406 95.3287 58.9114 95.3295 58.8863 95.3205C58.8611 95.3116 58.842 95.2936 58.833 95.2706C58.833 95.2706 58.833 95.2706 58.833 95.2706C58.7761 95.125 58.7268 94.9869 58.6788 94.8391C57.6661 92.249 59.2505 89.1316 57.3277 86.9033C57.2293 86.7805 57.1335 86.6708 57.0243 86.5549C57.1363 86.6687 57.2349 86.7764 57.3363 86.8973C59.3206 89.0953 57.8116 92.2794 58.8707 94.7747C58.921 94.9184 58.9726 95.0525 59.0316 95.1937Z" fill="#581301"/>
<path d="M71.4676 100.46C71.4916 100.516 71.4886 100.581 71.4588 100.641C71.429 100.701 71.3747 100.751 71.3085 100.78C71.2423 100.809 71.1698 100.814 71.1074 100.794C71.0449 100.774 70.9978 100.73 70.9757 100.673C70.9757 100.673 70.9757 100.673 70.9757 100.673C70.8777 100.42 70.7908 100.173 70.709 99.9144C69.067 95.3514 71.1771 89.8527 68.1882 85.9136C68.0213 85.7069 67.8453 85.5138 67.6515 85.3246C67.8519 85.5079 68.0351 85.6956 68.2096 85.8977C71.3528 89.7682 69.4249 95.3862 71.1846 99.7343C71.2723 99.9818 71.3647 100.219 71.4676 100.46Z" fill="#581301"/>
<path d="M160.559 132.511C142.417 122.866 131.216 119.139 110.928 115.418C130.682 121.592 141.485 126.158 158.708 135.856C159.657 136.39 160.862 136.031 161.358 135.061C161.831 134.135 161.477 132.999 160.559 132.511Z" fill="#6F1E00" stroke="#581301" stroke-width="0.5"/>
<path d="M170.951 115.659C171.562 115.926 172.173 116.193 172.784 116.46C173.306 115.221 173.806 114.038 174.331 112.804C183.5 90.8848 194.003 69.5483 205.685 48.8358C206.341 47.6605 206.965 46.5435 207.624 45.3684C206.936 46.5269 206.283 47.6273 205.599 48.786C193.402 69.1881 182.328 90.3207 172.592 112.038C172.036 113.261 171.505 114.432 170.951 115.659Z" fill="#581301"/>
<path d="M162.958 132.024C172.431 118.16 176.441 109.713 181.275 94.3833C174.562 109.242 169.938 117.393 160.647 130.399C160.138 131.111 160.388 132.113 161.175 132.497C161.803 132.803 162.564 132.601 162.958 132.024Z" fill="#6F1E00" stroke="#581301" stroke-width="0.5"/>
<path d="M182.142 91.4167C182.094 91.6099 182.126 91.8127 182.232 91.9809C182.338 92.149 182.51 92.2688 182.708 92.3133C182.906 92.3579 183.113 92.3234 183.281 92.217C183.449 92.1107 183.565 91.9411 183.604 91.7461C183.604 91.7461 183.604 91.7461 183.604 91.7461C183.741 91.0806 183.854 90.4471 183.956 89.7769C186.23 77.8995 179.641 65.8799 185.363 54.9376C185.663 54.3457 185.971 53.7956 186.32 53.2245C185.95 53.7822 185.62 54.3203 185.297 54.9025C179.118 65.6994 185.236 78.2922 182.552 89.5366C182.429 90.1778 182.297 90.7825 182.142 91.4167Z" fill="#581301"/>
<path d="M190.775 74.6341C190.761 74.7661 190.8 74.8969 190.886 74.9979C190.972 75.0989 191.098 75.1618 191.234 75.1725C191.369 75.1833 191.503 75.141 191.604 75.0548C191.705 74.9687 191.764 74.8456 191.771 74.713C191.771 74.713 191.771 74.713 191.771 74.713C191.788 74.3926 191.795 74.089 191.795 73.769C191.996 68.0494 187.986 63.0398 189.847 57.568C189.943 57.2723 190.044 56.9965 190.163 56.7066C190.029 56.9897 189.912 57.2599 189.8 57.5514C187.623 62.9697 191.381 68.4199 190.846 73.7453C190.83 74.0475 190.807 74.3332 190.775 74.6341Z" fill="#581301"/>
<path d="M194.118 70.9207C193.995 70.9693 193.858 70.9661 193.738 70.9098C193.618 70.8536 193.524 70.7489 193.477 70.6206C193.43 70.4923 193.435 70.3516 193.491 70.2313C193.546 70.111 193.648 70.0209 193.774 69.9789C193.774 69.9789 193.774 69.9789 193.774 69.9789C194.081 69.876 194.384 69.7837 194.694 69.6976C200.23 68.0212 206.249 69.8472 211.152 66.7541C211.411 66.5808 211.659 66.3973 211.903 66.1963C211.67 66.4099 211.432 66.6072 211.18 66.7951C206.398 70.1802 200.107 68.7078 194.973 70.6081C194.683 70.7055 194.402 70.8083 194.118 70.9207Z" fill="#581301"/>
<path d="M183.225 91.8286C183.116 91.9022 182.982 91.928 182.852 91.8988C182.723 91.8696 182.609 91.7878 182.535 91.6728C182.462 91.5579 182.437 91.4197 182.465 91.2903C182.494 91.1608 182.574 91.0507 182.688 90.9825C182.688 90.9825 182.688 90.9825 182.688 90.9825C182.994 90.7979 183.296 90.6279 183.611 90.4609C189.167 87.2819 196.22 88.2951 200.767 83.7382C201.006 83.4879 201.226 83.2315 201.44 82.9548C201.239 83.2414 201.031 83.5092 200.804 83.772C196.431 88.5927 189.164 87.9878 184.077 91.2911C183.785 91.4644 183.507 91.6398 183.225 91.8286Z" fill="#581301"/>
<path d="M196.194 64.9509C196.186 65.0168 196.204 65.0829 196.245 65.1348C196.286 65.1867 196.347 65.2201 196.414 65.2277C196.481 65.2353 196.548 65.2163 196.6 65.1749C196.652 65.1335 196.684 65.0731 196.691 65.007C196.691 65.007 196.691 65.007 196.691 65.007C196.717 64.7334 196.735 64.4753 196.747 64.2013C197.153 59.3293 193.84 54.8064 195.701 50.136C195.794 49.8821 195.89 49.6485 196.002 49.4005C195.882 49.6449 195.779 49.8755 195.677 50.127C193.66 54.7619 196.84 59.5075 196.274 64.1732C196.254 64.4381 196.228 64.6872 196.194 64.9509Z" fill="#581301"/>
<path d="M201.764 55.2622C201.761 55.2886 201.768 55.315 201.785 55.3358C201.801 55.3565 201.826 55.3699 201.852 55.3729C201.879 55.376 201.906 55.3684 201.926 55.3518C201.947 55.3353 201.96 55.3111 201.963 55.2847C201.963 55.2847 201.963 55.2847 201.963 55.2847C201.976 55.156 201.984 55.0354 201.991 54.907C202.222 52.6167 200.526 50.508 201.469 48.313C201.515 48.1928 201.56 48.0851 201.613 47.9678C201.557 48.0837 201.509 48.1902 201.46 48.3093C200.454 50.4889 202.097 52.6917 201.801 54.8954C201.792 55.0202 201.78 55.1373 201.764 55.2622Z" fill="#581301"/>
<path d="M202.15 55.2639C202.125 55.2736 202.098 55.273 202.074 55.2621C202.049 55.2512 202.03 55.2308 202.021 55.2056C202.011 55.1804 202.012 55.1525 202.023 55.1283C202.034 55.1041 202.054 55.0855 202.079 55.0764C202.079 55.0764 202.079 55.0764 202.079 55.0764C202.2 55.0323 202.314 54.994 202.437 54.9564C204.591 54.1679 207.048 55.297 208.933 53.8395C209.038 53.7658 209.131 53.6957 209.231 53.6149C209.133 53.6983 209.042 53.7711 208.939 53.8476C207.084 55.3626 204.549 54.3076 202.495 55.1377C202.377 55.1775 202.266 55.2179 202.15 55.2639Z" fill="#581301"/>
<path d="M162.905 112.136C163.565 112.081 164.224 112.026 164.883 111.971C164.718 110.284 164.562 108.675 164.403 106.991C161.404 77.1947 160.278 47.2432 160.978 17.3021C161.008 15.6089 161.039 13.9959 161.075 12.2999C161.006 13.9947 160.942 15.6064 160.879 17.2986C159.582 47.2046 160.113 77.2526 162.524 107.142C162.65 108.831 162.773 110.444 162.905 112.136Z" fill="#581301"/>
<path d="M163.593 134.586C165.877 114.167 165.217 102.381 161.203 82.1486C162.739 102.788 162.474 114.513 159.802 134.097C159.655 135.176 160.432 136.164 161.516 136.268C162.552 136.367 163.477 135.619 163.593 134.586Z" fill="#6F1E00" stroke="#581301" stroke-width="0.5"/>
<path d="M160.59 78.3211C160.643 78.5151 160.769 78.6794 160.942 78.7774C161.115 78.8754 161.32 78.8991 161.512 78.8437C161.704 78.7884 161.866 78.6586 161.961 78.4835C162.055 78.3083 162.075 78.1021 162.017 77.9097C162.017 77.9097 162.017 77.9097 162.017 77.9097C161.758 77.0515 161.488 76.2348 161.186 75.3931C156.33 60.1601 141.633 49.9035 141.007 33.5911C140.983 32.7156 140.999 31.8666 141.056 30.9841C140.975 31.8644 140.934 32.7133 140.933 33.5914C141.102 50.0147 155.641 60.9577 159.854 75.8557C160.124 76.6818 160.363 77.4821 160.59 78.3211Z" fill="#581301"/>
<path d="M160.01 54.5184C160.063 54.645 160.16 54.7458 160.282 54.7979C160.404 54.85 160.54 54.8492 160.66 54.7964C160.779 54.7435 160.871 54.643 160.915 54.5176C160.958 54.3922 160.949 54.2522 160.891 54.1278C160.891 54.1278 160.891 54.1278 160.891 54.1278C160.71 53.7368 160.526 53.367 160.326 52.987C156.958 46.0662 149.433 42.3063 147.947 34.6671C147.87 34.2569 147.813 33.859 147.77 33.4406C147.796 33.8596 147.838 34.2596 147.899 34.6735C149.099 42.4226 156.606 46.6746 159.511 53.4067C159.689 53.778 159.851 54.1385 160.01 54.5184Z" fill="#581301"/>
<path d="M161.022 53.0212C160.958 53.1252 160.849 53.1949 160.717 53.2141C160.584 53.2333 160.44 53.2005 160.317 53.1236C160.195 53.0468 160.103 52.9324 160.065 52.8065C160.026 52.6806 160.044 52.5535 160.113 52.4523C160.113 52.4523 160.113 52.4523 160.113 52.4523C160.351 52.0997 160.593 51.767 160.853 51.4306C165.272 45.2292 174.277 43.1922 176.618 35.7971C176.735 35.3973 176.828 35.0003 176.901 34.5817C176.845 35.0045 176.77 35.4073 176.669 35.8143C174.618 43.3832 165.617 45.8652 161.69 52.0103C161.454 52.3442 161.237 52.6735 161.022 53.0212Z" fill="#581301"/>
<path d="M161.745 78.1543C161.681 78.2583 161.572 78.328 161.439 78.3472C161.307 78.3664 161.163 78.3336 161.04 78.2567C160.917 78.1799 160.826 78.0655 160.788 77.9396C160.749 77.8137 160.767 77.6866 160.835 77.5854C160.835 77.5854 160.835 77.5854 160.835 77.5854C161.074 77.2328 161.316 76.9001 161.576 76.5637C165.995 70.3623 174.999 68.3254 177.341 60.9302C177.458 60.5304 177.551 60.1334 177.623 59.7148C177.568 60.1377 177.492 60.5404 177.392 60.9475C175.341 68.5163 166.34 70.9983 162.413 77.1434C162.177 77.4773 161.959 77.8066 161.745 78.1543Z" fill="#581301"/>
<path d="M160.152 40.616C160.177 40.6799 160.225 40.7317 160.285 40.7598C160.345 40.788 160.413 40.7902 160.473 40.7662C160.533 40.7421 160.58 40.6938 160.604 40.632C160.628 40.5703 160.626 40.5001 160.6 40.4368C160.6 40.4368 160.6 40.4368 160.6 40.4368C160.457 40.0963 160.314 39.7756 160.155 39.4434C157.53 33.4152 151.074 29.9169 150.109 23.2526C150.055 22.8955 150.018 22.5533 149.993 22.1911C150.01 22.5534 150.039 22.8964 150.085 23.255C150.903 29.966 157.347 33.7166 159.74 39.6382C159.888 39.9656 160.021 40.2814 160.152 40.616Z" fill="#581301"/>
<path d="M160.5 26.642C160.51 26.6675 160.529 26.6882 160.553 26.6995C160.577 26.7107 160.604 26.7116 160.628 26.702C160.652 26.6924 160.671 26.6731 160.68 26.6484C160.69 26.6237 160.689 26.5956 160.679 26.5703C160.612 26.4096 160.545 26.2599 160.471 26.1034C159.277 23.2444 156.102 21.6994 155.721 18.5268C155.697 18.3573 155.68 18.1985 155.669 18.027C155.677 18.1985 155.69 18.3576 155.711 18.5277C156.033 21.7183 159.206 23.3679 160.305 26.181C160.375 26.3357 160.437 26.4835 160.5 26.642Z" fill="#581301"/>
<path d="M160.89 26.4516C160.873 26.4689 160.848 26.4772 160.822 26.4745C160.796 26.4719 160.77 26.4586 160.751 26.4377C160.731 26.4167 160.72 26.3899 160.719 26.3632C160.718 26.3365 160.728 26.3121 160.746 26.2953C160.746 26.2953 160.746 26.2953 160.746 26.2953C160.86 26.1888 160.97 26.0921 161.09 25.9931C163.125 24.0974 166.607 24.4222 167.97 21.8138C168.048 21.6771 168.115 21.5477 168.182 21.4034C168.118 21.5495 168.054 21.6808 167.979 21.8197C166.666 24.4741 163.15 24.2439 161.221 26.1477C161.105 26.2474 161 26.3447 160.89 26.4516Z" fill="#581301"/>
<path d="M160.575 39.953C160.532 39.9961 160.47 40.0173 160.403 40.0117C160.336 40.0061 160.27 39.974 160.219 39.9231C160.168 39.8721 160.136 39.8065 160.132 39.741C160.128 39.6756 160.151 39.6158 160.196 39.5742C160.196 39.5742 160.196 39.5742 160.196 39.5742C160.394 39.3901 160.593 39.218 160.803 39.0468C164.44 35.8395 170.329 35.776 172.891 31.5463C173.021 31.315 173.136 31.0802 173.24 30.8303C173.144 31.0842 173.037 31.3236 172.913 31.5603C170.473 35.9082 164.54 36.1851 161.145 39.4226C160.948 39.5953 160.761 39.7686 160.575 39.953Z" fill="#581301"/>
<path d="M161.938 135.626C162.478 135.235 163.019 134.845 163.559 134.454C162.16 132.547 160.826 130.724 159.437 128.818C134.622 95.1828 111.881 60.0504 91.1579 23.7308C89.9748 21.6813 88.8521 19.7313 87.673 17.6755C88.8231 19.7477 89.9167 21.7142 91.0709 23.7802C111.265 60.3852 133.54 95.9061 157.893 129.926C159.257 131.854 160.565 133.698 161.938 135.626Z" fill="#581301"/>
<path d="M179.142 163.195C166.51 136.188 157.308 122.532 138.346 101.417C154.948 125.022 163.159 139.35 174.684 165.388C175.187 166.525 176.596 166.941 177.63 166.251L178.444 165.709C179.264 165.161 179.56 164.088 179.142 163.195Z" fill="#6F1E00" stroke="#581301" stroke-width="0.5"/>
<path d="M135.017 97.0361C135.16 97.1741 135.352 97.2487 135.551 97.2426C135.75 97.2366 135.939 97.1505 136.077 97.004C136.215 96.8576 136.289 96.6631 136.283 96.4643C136.277 96.2655 136.191 96.0786 136.045 95.9438C136.045 95.9438 136.045 95.9438 136.045 95.9438C135.175 95.1427 134.332 94.406 133.423 93.6518C117.788 79.5959 93.6288 78.5815 82.3466 60.0286C81.7273 59.0405 81.1786 58.0804 80.6351 57.0381C81.1563 58.0917 81.6835 59.0648 82.2827 60.0678C93.2065 78.9399 117.621 80.6524 132.502 94.7388C133.375 95.4959 134.183 96.2349 135.017 97.0361Z" fill="#581301"/>
<path d="M117.152 69.0591C117.259 69.137 117.392 69.1685 117.523 69.1457C117.654 69.1229 117.771 69.0476 117.848 68.9374C117.926 68.8271 117.957 68.6913 117.934 68.5607C117.911 68.43 117.836 68.3153 117.727 68.2408C117.727 68.2408 117.727 68.2408 117.727 68.2408C117.267 67.9283 116.824 67.6447 116.349 67.3577C108.082 61.9184 96.833 63.3609 90.3124 55.5656C89.9552 55.1529 89.6338 54.7502 89.3074 54.3074C89.6202 54.7599 89.9288 55.1733 90.2742 55.5977C96.5875 63.638 108.088 62.6367 115.846 68.1634C116.297 68.4553 116.717 68.7434 117.152 69.0591Z" fill="#581301"/>
<path d="M116.911 66.6298C116.918 66.7622 116.871 66.8911 116.78 66.988C116.69 67.0849 116.563 67.142 116.429 67.1466C116.294 67.1512 116.164 67.103 116.067 67.0125C115.97 66.922 115.914 66.7966 115.912 66.664C115.912 66.664 115.912 66.664 115.912 66.664C115.899 66.0408 115.903 65.438 115.924 64.8167C115.922 53.6724 123.619 43.7219 120.652 32.7536C120.479 32.1692 120.281 31.6073 120.048 31.0372C120.297 31.6007 120.511 32.1577 120.7 32.7388C123.982 43.6912 116.528 54.0335 116.874 64.836C116.87 65.4405 116.882 66.0258 116.911 66.6298Z" fill="#581301"/>
<path d="M135.839 96.1891C135.846 96.3216 135.799 96.4504 135.708 96.5473C135.618 96.6443 135.491 96.7013 135.357 96.7059C135.222 96.7105 135.092 96.6623 134.995 96.5718C134.898 96.4813 134.842 96.3559 134.84 96.2233C134.84 96.2233 134.84 96.2233 134.84 96.2233C134.827 95.6001 134.831 94.9973 134.852 94.3761C134.85 83.2317 142.547 73.2813 139.58 62.3129C139.407 61.7285 139.209 61.1666 138.975 60.5966C139.225 61.1601 139.439 61.717 139.628 62.2981C142.91 73.2506 135.456 83.5928 135.802 94.3953C135.798 94.9998 135.81 95.5851 135.839 96.1891Z" fill="#581301"/>
<path d="M107.229 52.3507C107.281 52.3911 107.348 52.4087 107.413 52.3995C107.479 52.3903 107.539 52.3549 107.579 52.3015C107.619 52.248 107.637 52.181 107.627 52.1153C107.618 52.0497 107.583 51.9908 107.53 51.9514C107.53 51.9514 107.53 51.9514 107.53 51.9514C107.145 51.6666 106.775 51.4084 106.377 51.1448C99.4777 46.1706 89.6344 47.0702 84.2853 40.0403C83.9872 39.6705 83.7223 39.3153 83.4503 38.9226C83.7154 39.32 83.9738 39.6803 84.2657 40.0558C89.5041 47.2029 99.4718 46.5311 106.111 51.5388C106.498 51.8045 106.856 52.0647 107.229 52.3507Z" fill="#581301"/>
<path d="M97.466 35.3399C97.487 35.356 97.5136 35.363 97.5398 35.3593C97.5661 35.3556 97.5899 35.3415 97.606 35.3202C97.6221 35.2988 97.6291 35.272 97.6254 35.2458C97.6217 35.2195 97.6076 35.1959 97.5863 35.1801C97.5863 35.1801 97.5863 35.1801 97.5863 35.1801C97.4051 35.0458 97.2325 34.9245 97.046 34.8002C93.8331 32.4029 89.1108 33.0554 86.6558 29.6507C86.5156 29.474 86.3941 29.3094 86.2655 29.1233C86.3913 29.3113 86.5102 29.478 86.6479 29.6569C89.0575 33.108 93.8342 32.5486 96.9395 34.9576C97.1215 35.0828 97.2895 35.2049 97.466 35.3399Z" fill="#581301"/>
<path d="M97.6912 34.8039C97.687 34.8301 97.6725 34.8534 97.6509 34.8688C97.6293 34.8842 97.6023 34.8903 97.5759 34.8858C97.5496 34.8814 97.5261 34.8667 97.5107 34.8451C97.4953 34.8235 97.4894 34.7966 97.494 34.7705C97.494 34.7705 97.494 34.7705 97.494 34.7705C97.5334 34.5484 97.5754 34.3417 97.6256 34.1232C98.3133 30.1739 102.193 27.4037 101.638 23.2431C101.618 23.0185 101.593 22.8153 101.559 22.5917C101.597 22.8148 101.625 23.0176 101.648 23.2422C102.268 27.4054 98.4125 30.2806 97.8111 34.1645C97.7649 34.3804 97.7267 34.5846 97.6912 34.8039Z" fill="#581301"/>
<path d="M107.084 51.2686C107.073 51.3341 107.038 51.3926 106.984 51.4311C106.93 51.4696 106.862 51.4849 106.796 51.4739C106.73 51.4628 106.671 51.4262 106.632 51.3722C106.594 51.3182 106.579 51.2513 106.59 51.186C106.59 51.186 106.59 51.186 106.59 51.186C106.66 50.7992 106.737 50.4275 106.826 50.0459C108.197 43.1577 114.233 37.9443 113.736 30.7688C113.701 30.3848 113.648 30.0122 113.574 29.6296C113.656 30.0106 113.717 30.3823 113.761 30.7663C114.414 37.9647 108.458 43.396 107.29 50.1498C107.21 50.5248 107.143 50.8896 107.084 51.2686Z" fill="#581301"/>
</g>
<path d="M162.607 132.313C162.095 131.891 161.584 131.469 161.072 131.047C160.497 131.754 159.949 132.417 159.367 133.109C149.439 145.714 135.563 154.951 119.822 158.936C118.951 159.194 118.11 159.438 117.232 159.687C118.118 159.47 118.968 159.258 119.848 159.032C135.665 155.675 150.302 146.733 160.805 134.335C161.42 133.656 161.999 133.006 162.607 132.313Z" fill="#581301"/>
<path d="M161.194 134.589C160.976 133.963 160.759 133.337 160.541 132.711C161.395 132.422 162.203 132.143 163.051 131.844C178.19 126.94 191.895 118.172 202.973 106.577C203.614 105.936 204.219 105.326 204.854 104.678C204.243 105.349 203.662 105.982 203.045 106.646C192.45 118.619 178.803 128.106 163.694 133.62C162.849 133.953 162.044 134.265 161.194 134.589Z" fill="#581301"/>
<path d="M139.434 124.881C139.626 124.248 139.818 123.615 140.009 122.982C138.38 122.513 136.827 122.066 135.203 121.593C106.396 113.407 78.1358 103.422 50.5577 91.7421C48.9948 91.0902 47.5065 90.4674 45.9429 89.8096C47.4932 90.4977 48.9681 91.1508 50.5179 91.833C77.8438 104.054 105.975 114.628 134.651 123.396C136.267 123.901 137.813 124.381 139.434 124.881Z" fill="#581301"/>
<path d="M134.902 124.162C135.102 124.145 135.286 124.05 135.413 123.897C135.54 123.744 135.6 123.546 135.579 123.347C135.558 123.148 135.459 122.966 135.304 122.842C135.148 122.718 134.948 122.662 134.749 122.685C134.749 122.685 134.749 122.685 134.749 122.685C133.858 122.789 133.007 122.91 132.125 123.058C116.274 125.146 103.581 137.8 87.4151 135.534C86.5492 135.403 85.7165 135.237 84.8579 135.025C85.7099 135.261 86.5382 135.451 87.4023 135.607C103.597 138.343 116.937 125.966 132.345 124.452C133.206 124.332 134.036 124.238 134.902 124.162Z" fill="#581301"/>
<path d="M107.554 113.99C107.692 113.987 107.821 113.933 107.915 113.839C108.008 113.745 108.057 113.618 108.052 113.488C108.047 113.357 107.988 113.235 107.887 113.148C107.786 113.061 107.653 113.018 107.516 113.026C107.516 113.026 107.516 113.026 107.516 113.026C107.086 113.051 106.674 113.086 106.247 113.132C98.5724 113.714 92.3051 119.325 84.6558 117.892C84.2459 117.813 83.8549 117.72 83.4503 117.605C83.8494 117.735 84.2365 117.844 84.644 117.939C92.2901 119.678 99.0084 114.265 106.337 114.044C106.748 114.015 107.143 113.998 107.554 113.99Z" fill="#581301"/>
<path d="M98.7495 110.302C98.8226 110.4 98.847 110.527 98.8162 110.657C98.7854 110.787 98.7018 110.909 98.585 110.995C98.4683 111.081 98.3283 111.124 98.1972 111.113C98.0659 111.103 97.9543 111.039 97.8855 110.938C97.8855 110.938 97.8855 110.938 97.8855 110.938C97.6455 110.587 97.4252 110.239 97.2082 109.874C93.0705 103.481 94.4935 94.3594 88.4808 89.4585C88.1524 89.2023 87.8172 88.9703 87.4549 88.7483C87.8275 88.9559 88.1742 89.1743 88.5154 89.418C94.7969 94.1122 93.7889 103.395 98.0555 109.309C98.279 109.652 98.5051 109.975 98.7495 110.302Z" fill="#581301"/>
<path d="M115.64 115.933C115.714 116.03 115.738 116.158 115.707 116.288C115.676 116.418 115.593 116.54 115.476 116.626C115.359 116.712 115.219 116.754 115.088 116.744C114.957 116.733 114.845 116.67 114.776 116.569C114.776 116.569 114.776 116.569 114.776 116.569C114.537 116.217 114.316 115.87 114.099 115.504C109.962 109.112 111.385 99.9898 105.372 95.089C105.043 94.8327 104.708 94.6007 104.346 94.3787C104.718 94.5863 105.065 94.8047 105.406 95.0484C111.688 99.7426 110.68 109.025 114.947 114.94C115.17 115.282 115.396 115.605 115.64 115.933Z" fill="#581301"/>
<path d="M87.4306 107.186C87.4992 107.186 87.5649 107.161 87.6132 107.116C87.6616 107.07 87.6886 107.008 87.6883 106.943C87.6881 106.879 87.6606 106.817 87.612 106.772C87.5633 106.727 87.4974 106.703 87.4288 106.704C87.4288 106.704 87.4288 106.704 87.4288 106.704C87.0599 106.711 86.7088 106.726 86.3415 106.752C79.7702 106.972 74.1398 111.685 67.5887 110.128C67.237 110.046 66.9052 109.954 66.5593 109.844C66.9023 109.962 67.2318 110.061 67.5821 110.151C74.1226 111.862 79.983 107.253 86.3699 107.209C86.7287 107.192 87.0712 107.185 87.4306 107.186Z" fill="#581301"/>
<path d="M59.0647 95.6269C59.0922 95.627 59.1184 95.6168 59.1378 95.5986C59.1571 95.5804 59.1679 95.5556 59.1678 95.5297C59.1677 95.5039 59.1567 95.4792 59.1373 95.4613C59.1178 95.4433 59.0915 95.4336 59.064 95.4341C59.064 95.4341 59.064 95.4341 59.064 95.4341C58.8901 95.437 58.7264 95.4437 58.5535 95.455C55.4557 95.5121 52.8498 97.8947 49.7598 97.081C49.5933 97.0409 49.4397 96.9975 49.276 96.9451C49.4385 97.0006 49.5912 97.047 49.757 97.0904C52.8421 97.9658 55.5444 95.6236 58.5645 95.6379C58.734 95.63 58.8944 95.6266 59.0647 95.6269Z" fill="#581301"/>
<path d="M59.0316 95.1937C59.0411 95.2165 59.0398 95.2424 59.0277 95.2658C59.0156 95.2892 58.9938 95.3081 58.9672 95.3184C58.9406 95.3287 58.9114 95.3295 58.8863 95.3205C58.8611 95.3116 58.842 95.2936 58.833 95.2706C58.833 95.2706 58.833 95.2706 58.833 95.2706C58.7761 95.125 58.7268 94.9869 58.6788 94.8391C57.6661 92.249 59.2505 89.1316 57.3277 86.9033C57.2293 86.7805 57.1335 86.6708 57.0243 86.5549C57.1363 86.6687 57.2349 86.7764 57.3363 86.8973C59.3206 89.0953 57.8116 92.2794 58.8707 94.7747C58.921 94.9184 58.9726 95.0525 59.0316 95.1937Z" fill="#581301"/>
<path d="M71.4676 100.46C71.4916 100.516 71.4886 100.581 71.4588 100.641C71.429 100.701 71.3747 100.751 71.3085 100.78C71.2423 100.809 71.1698 100.814 71.1074 100.794C71.0449 100.774 70.9978 100.73 70.9757 100.673C70.9757 100.673 70.9757 100.673 70.9757 100.673C70.8777 100.42 70.7908 100.173 70.709 99.9144C69.067 95.3514 71.1771 89.8527 68.1882 85.9136C68.0213 85.7069 67.8453 85.5138 67.6515 85.3246C67.8519 85.5079 68.0351 85.6956 68.2096 85.8977C71.3528 89.7682 69.4249 95.3862 71.1846 99.7343C71.2723 99.9818 71.3647 100.219 71.4676 100.46Z" fill="#581301"/>
<path d="M160.559 132.511C142.417 122.866 131.216 119.139 110.928 115.418C130.682 121.592 141.485 126.158 158.708 135.856C159.657 136.39 160.862 136.031 161.358 135.061C161.831 134.135 161.477 132.999 160.559 132.511Z" fill="#6F1E00" stroke="#581301" stroke-width="0.5"/>
<path d="M170.951 115.659C171.562 115.926 172.173 116.193 172.784 116.46C173.306 115.221 173.806 114.038 174.331 112.804C183.5 90.8848 194.003 69.5483 205.685 48.8358C206.341 47.6605 206.965 46.5435 207.624 45.3684C206.936 46.5269 206.283 47.6273 205.599 48.786C193.402 69.1881 182.328 90.3207 172.592 112.038C172.036 113.261 171.505 114.432 170.951 115.659Z" fill="#581301"/>
<path d="M162.958 132.024C172.431 118.16 176.441 109.713 181.275 94.3833C174.562 109.242 169.938 117.393 160.647 130.399C160.138 131.111 160.388 132.113 161.175 132.497C161.803 132.803 162.564 132.601 162.958 132.024Z" fill="#6F1E00" stroke="#581301" stroke-width="0.5"/>
<path d="M182.142 91.4167C182.094 91.6099 182.126 91.8127 182.232 91.9809C182.338 92.149 182.51 92.2688 182.708 92.3133C182.906 92.3579 183.113 92.3234 183.281 92.217C183.449 92.1107 183.565 91.9411 183.604 91.7461C183.604 91.7461 183.604 91.7461 183.604 91.7461C183.741 91.0806 183.854 90.4471 183.956 89.7769C186.23 77.8995 179.641 65.8799 185.363 54.9376C185.663 54.3457 185.971 53.7956 186.32 53.2245C185.95 53.7822 185.62 54.3203 185.297 54.9025C179.118 65.6994 185.236 78.2922 182.552 89.5366C182.429 90.1778 182.297 90.7825 182.142 91.4167Z" fill="#581301"/>
<path d="M190.775 74.6341C190.761 74.7661 190.8 74.8969 190.886 74.9979C190.972 75.0989 191.098 75.1618 191.234 75.1725C191.369 75.1833 191.503 75.141 191.604 75.0548C191.705 74.9687 191.764 74.8456 191.771 74.713C191.771 74.713 191.771 74.713 191.771 74.713C191.788 74.3926 191.795 74.089 191.795 73.769C191.996 68.0494 187.986 63.0398 189.847 57.568C189.943 57.2723 190.044 56.9965 190.163 56.7066C190.029 56.9897 189.912 57.2599 189.8 57.5514C187.623 62.9697 191.381 68.4199 190.846 73.7453C190.83 74.0475 190.807 74.3332 190.775 74.6341Z" fill="#581301"/>
<path d="M194.118 70.9207C193.995 70.9693 193.858 70.9661 193.738 70.9098C193.618 70.8536 193.524 70.7489 193.477 70.6206C193.43 70.4923 193.435 70.3516 193.491 70.2313C193.546 70.111 193.648 70.0209 193.774 69.9789C193.774 69.9789 193.774 69.9789 193.774 69.9789C194.081 69.876 194.384 69.7837 194.694 69.6976C200.23 68.0212 206.249 69.8472 211.152 66.7541C211.411 66.5808 211.659 66.3973 211.903 66.1963C211.67 66.4099 211.432 66.6072 211.18 66.7951C206.398 70.1802 200.107 68.7078 194.973 70.6081C194.683 70.7055 194.402 70.8083 194.118 70.9207Z" fill="#581301"/>
<path d="M183.225 91.8286C183.116 91.9022 182.982 91.928 182.852 91.8988C182.723 91.8696 182.609 91.7878 182.535 91.6728C182.462 91.5579 182.437 91.4197 182.465 91.2903C182.494 91.1608 182.574 91.0507 182.688 90.9825C182.688 90.9825 182.688 90.9825 182.688 90.9825C182.994 90.7979 183.296 90.6279 183.611 90.4609C189.167 87.2819 196.22 88.2951 200.767 83.7382C201.006 83.4879 201.226 83.2315 201.44 82.9548C201.239 83.2414 201.031 83.5092 200.804 83.772C196.431 88.5927 189.164 87.9878 184.077 91.2911C183.785 91.4644 183.507 91.6398 183.225 91.8286Z" fill="#581301"/>
<path d="M196.194 64.9509C196.186 65.0168 196.204 65.0829 196.245 65.1348C196.286 65.1867 196.347 65.2201 196.414 65.2277C196.481 65.2353 196.548 65.2163 196.6 65.1749C196.652 65.1335 196.684 65.0731 196.691 65.007C196.691 65.007 196.691 65.007 196.691 65.007C196.717 64.7334 196.735 64.4753 196.747 64.2013C197.153 59.3293 193.84 54.8064 195.701 50.136C195.794 49.8821 195.89 49.6485 196.002 49.4005C195.882 49.6449 195.779 49.8755 195.677 50.127C193.66 54.7619 196.84 59.5075 196.274 64.1732C196.254 64.4381 196.228 64.6872 196.194 64.9509Z" fill="#581301"/>
<path d="M201.764 55.2622C201.761 55.2886 201.768 55.315 201.785 55.3358C201.801 55.3565 201.826 55.3699 201.852 55.3729C201.879 55.376 201.906 55.3684 201.926 55.3518C201.947 55.3353 201.96 55.3111 201.963 55.2847C201.963 55.2847 201.963 55.2847 201.963 55.2847C201.976 55.156 201.984 55.0354 201.991 54.907C202.222 52.6167 200.526 50.508 201.469 48.313C201.515 48.1928 201.56 48.0851 201.613 47.9678C201.557 48.0837 201.509 48.1902 201.46 48.3093C200.454 50.4889 202.097 52.6917 201.801 54.8954C201.792 55.0202 201.78 55.1373 201.764 55.2622Z" fill="#581301"/>
<path d="M202.15 55.2639C202.125 55.2736 202.098 55.273 202.074 55.2621C202.049 55.2512 202.03 55.2308 202.021 55.2056C202.011 55.1804 202.012 55.1525 202.023 55.1283C202.034 55.1041 202.054 55.0855 202.079 55.0764C202.079 55.0764 202.079 55.0764 202.079 55.0764C202.2 55.0323 202.314 54.994 202.437 54.9564C204.591 54.1679 207.048 55.297 208.933 53.8395C209.038 53.7658 209.131 53.6957 209.231 53.6149C209.133 53.6983 209.042 53.7711 208.939 53.8476C207.084 55.3626 204.549 54.3076 202.495 55.1377C202.377 55.1775 202.266 55.2179 202.15 55.2639Z" fill="#581301"/>
<path d="M162.905 112.136C163.565 112.081 164.224 112.026 164.883 111.971C164.718 110.284 164.562 108.675 164.403 106.991C161.404 77.1947 160.278 47.2432 160.978 17.3021C161.008 15.6089 161.039 13.9959 161.075 12.2999C161.006 13.9947 160.942 15.6064 160.879 17.2986C159.582 47.2046 160.113 77.2526 162.524 107.142C162.65 108.831 162.773 110.444 162.905 112.136Z" fill="#581301"/>
<path d="M163.593 134.586C165.877 114.167 165.217 102.381 161.203 82.1486C162.739 102.788 162.474 114.513 159.802 134.097C159.655 135.176 160.432 136.164 161.516 136.268C162.552 136.367 163.477 135.619 163.593 134.586Z" fill="#6F1E00" stroke="#581301" stroke-width="0.5"/>
<path d="M160.59 78.3211C160.643 78.5151 160.769 78.6794 160.942 78.7774C161.115 78.8754 161.32 78.8991 161.512 78.8437C161.704 78.7884 161.866 78.6586 161.961 78.4835C162.055 78.3083 162.075 78.1021 162.017 77.9097C162.017 77.9097 162.017 77.9097 162.017 77.9097C161.758 77.0515 161.488 76.2348 161.186 75.3931C156.33 60.1601 141.633 49.9035 141.007 33.5911C140.983 32.7156 140.999 31.8666 141.056 30.9841C140.975 31.8644 140.934 32.7133 140.933 33.5914C141.102 50.0147 155.641 60.9577 159.854 75.8557C160.124 76.6818 160.363 77.4821 160.59 78.3211Z" fill="#581301"/>
<path d="M160.01 54.5184C160.063 54.645 160.16 54.7458 160.282 54.7979C160.404 54.85 160.54 54.8492 160.66 54.7964C160.779 54.7435 160.871 54.643 160.915 54.5176C160.958 54.3922 160.949 54.2522 160.891 54.1278C160.891 54.1278 160.891 54.1278 160.891 54.1278C160.71 53.7368 160.526 53.367 160.326 52.987C156.958 46.0662 149.433 42.3063 147.947 34.6671C147.87 34.2569 147.813 33.859 147.77 33.4406C147.796 33.8596 147.838 34.2596 147.899 34.6735C149.099 42.4226 156.606 46.6746 159.511 53.4067C159.689 53.778 159.851 54.1385 160.01 54.5184Z" fill="#581301"/>
<path d="M161.022 53.0212C160.958 53.1252 160.849 53.1949 160.717 53.2141C160.584 53.2333 160.44 53.2005 160.317 53.1236C160.195 53.0468 160.103 52.9324 160.065 52.8065C160.026 52.6806 160.044 52.5535 160.113 52.4523C160.113 52.4523 160.113 52.4523 160.113 52.4523C160.351 52.0997 160.593 51.767 160.853 51.4306C165.272 45.2292 174.277 43.1922 176.618 35.7971C176.735 35.3973 176.828 35.0003 176.901 34.5817C176.845 35.0045 176.77 35.4073 176.669 35.8143C174.618 43.3832 165.617 45.8652 161.69 52.0103C161.454 52.3442 161.237 52.6735 161.022 53.0212Z" fill="#581301"/>
<path d="M161.745 78.1543C161.681 78.2583 161.572 78.328 161.439 78.3472C161.307 78.3664 161.163 78.3336 161.04 78.2567C160.917 78.1799 160.826 78.0655 160.788 77.9396C160.749 77.8137 160.767 77.6866 160.835 77.5854C160.835 77.5854 160.835 77.5854 160.835 77.5854C161.074 77.2328 161.316 76.9001 161.576 76.5637C165.995 70.3623 174.999 68.3254 177.341 60.9302C177.458 60.5304 177.551 60.1334 177.623 59.7148C177.568 60.1377 177.492 60.5404 177.392 60.9475C175.341 68.5163 166.34 70.9983 162.413 77.1434C162.177 77.4773 161.959 77.8066 161.745 78.1543Z" fill="#581301"/>
<path d="M160.152 40.616C160.177 40.6799 160.225 40.7317 160.285 40.7598C160.345 40.788 160.413 40.7902 160.473 40.7662C160.533 40.7421 160.58 40.6938 160.604 40.632C160.628 40.5703 160.626 40.5001 160.6 40.4368C160.6 40.4368 160.6 40.4368 160.6 40.4368C160.457 40.0963 160.314 39.7756 160.155 39.4434C157.53 33.4152 151.074 29.9169 150.109 23.2526C150.055 22.8955 150.018 22.5533 149.993 22.1911C150.01 22.5534 150.039 22.8964 150.085 23.255C150.903 29.966 157.347 33.7166 159.74 39.6382C159.888 39.9656 160.021 40.2814 160.152 40.616Z" fill="#581301"/>
<path d="M160.5 26.642C160.51 26.6675 160.529 26.6882 160.553 26.6995C160.577 26.7107 160.604 26.7116 160.628 26.702C160.652 26.6924 160.671 26.6731 160.68 26.6484C160.69 26.6237 160.689 26.5956 160.679 26.5703C160.612 26.4096 160.545 26.2599 160.471 26.1034C159.277 23.2444 156.102 21.6994 155.721 18.5268C155.697 18.3573 155.68 18.1985 155.669 18.027C155.677 18.1985 155.69 18.3576 155.711 18.5277C156.033 21.7183 159.206 23.3679 160.305 26.181C160.375 26.3357 160.437 26.4835 160.5 26.642Z" fill="#581301"/>
<path d="M160.89 26.4516C160.873 26.4689 160.848 26.4772 160.822 26.4745C160.796 26.4719 160.77 26.4586 160.751 26.4377C160.731 26.4167 160.72 26.3899 160.719 26.3632C160.718 26.3365 160.728 26.3121 160.746 26.2953C160.746 26.2953 160.746 26.2953 160.746 26.2953C160.86 26.1888 160.97 26.0921 161.09 25.9931C163.125 24.0974 166.607 24.4222 167.97 21.8138C168.048 21.6771 168.115 21.5477 168.182 21.4034C168.118 21.5495 168.054 21.6808 167.979 21.8197C166.666 24.4741 163.15 24.2439 161.221 26.1477C161.105 26.2474 161 26.3447 160.89 26.4516Z" fill="#581301"/>
<path d="M160.575 39.953C160.532 39.9961 160.47 40.0173 160.403 40.0117C160.336 40.0061 160.27 39.974 160.219 39.9231C160.168 39.8721 160.136 39.8065 160.132 39.741C160.128 39.6756 160.151 39.6158 160.196 39.5742C160.196 39.5742 160.196 39.5742 160.196 39.5742C160.394 39.3901 160.593 39.218 160.803 39.0468C164.44 35.8395 170.329 35.776 172.891 31.5463C173.021 31.315 173.136 31.0802 173.24 30.8303C173.144 31.0842 173.037 31.3236 172.913 31.5603C170.473 35.9082 164.54 36.1851 161.145 39.4226C160.948 39.5953 160.761 39.7686 160.575 39.953Z" fill="#581301"/>
<path d="M161.938 135.626C162.478 135.235 163.019 134.845 163.559 134.454C162.16 132.547 160.826 130.724 159.437 128.818C134.622 95.1828 111.881 60.0504 91.1579 23.7308C89.9748 21.6813 88.8521 19.7313 87.673 17.6755C88.8231 19.7477 89.9167 21.7142 91.0709 23.7802C111.265 60.3852 133.54 95.9061 157.893 129.926C159.257 131.854 160.565 133.698 161.938 135.626Z" fill="#581301"/>
<path d="M179.142 163.195C166.51 136.188 157.308 122.532 138.346 101.417C154.948 125.022 163.159 139.35 174.684 165.388C175.187 166.525 176.596 166.941 177.63 166.251L178.444 165.709C179.264 165.161 179.56 164.088 179.142 163.195Z" fill="#6F1E00" stroke="#581301" stroke-width="0.5"/>
<path d="M135.017 97.0361C135.16 97.1741 135.352 97.2487 135.551 97.2426C135.75 97.2366 135.939 97.1505 136.077 97.004C136.215 96.8576 136.289 96.6631 136.283 96.4643C136.277 96.2655 136.191 96.0786 136.045 95.9438C136.045 95.9438 136.045 95.9438 136.045 95.9438C135.175 95.1427 134.332 94.406 133.423 93.6518C117.788 79.5959 93.6288 78.5815 82.3466 60.0286C81.7273 59.0405 81.1786 58.0804 80.6351 57.0381C81.1563 58.0917 81.6835 59.0648 82.2827 60.0678C93.2065 78.9399 117.621 80.6524 132.502 94.7388C133.375 95.4959 134.183 96.2349 135.017 97.0361Z" fill="#581301"/>
<path d="M117.152 69.0591C117.259 69.137 117.392 69.1685 117.523 69.1457C117.654 69.1229 117.771 69.0476 117.848 68.9374C117.926 68.8271 117.957 68.6913 117.934 68.5607C117.911 68.43 117.836 68.3153 117.727 68.2408C117.727 68.2408 117.727 68.2408 117.727 68.2408C117.267 67.9283 116.824 67.6447 116.349 67.3577C108.082 61.9184 96.833 63.3609 90.3124 55.5656C89.9552 55.1529 89.6338 54.7502 89.3074 54.3074C89.6202 54.7599 89.9288 55.1733 90.2742 55.5977C96.5875 63.638 108.088 62.6367 115.846 68.1634C116.297 68.4553 116.717 68.7434 117.152 69.0591Z" fill="#581301"/>
<path d="M116.911 66.6298C116.918 66.7622 116.871 66.8911 116.78 66.988C116.69 67.0849 116.563 67.142 116.429 67.1466C116.294 67.1512 116.164 67.103 116.067 67.0125C115.97 66.922 115.914 66.7966 115.912 66.664C115.912 66.664 115.912 66.664 115.912 66.664C115.899 66.0408 115.903 65.438 115.924 64.8167C115.922 53.6724 123.619 43.7219 120.652 32.7536C120.479 32.1692 120.281 31.6073 120.048 31.0372C120.297 31.6007 120.511 32.1577 120.7 32.7388C123.982 43.6912 116.528 54.0335 116.874 64.836C116.87 65.4405 116.882 66.0258 116.911 66.6298Z" fill="#581301"/>
<path d="M135.839 96.1891C135.846 96.3216 135.799 96.4504 135.708 96.5473C135.618 96.6443 135.491 96.7013 135.357 96.7059C135.222 96.7105 135.092 96.6623 134.995 96.5718C134.898 96.4813 134.842 96.3559 134.84 96.2233C134.84 96.2233 134.84 96.2233 134.84 96.2233C134.827 95.6001 134.831 94.9973 134.852 94.3761C134.85 83.2317 142.547 73.2813 139.58 62.3129C139.407 61.7285 139.209 61.1666 138.975 60.5966C139.225 61.1601 139.439 61.717 139.628 62.2981C142.91 73.2506 135.456 83.5928 135.802 94.3953C135.798 94.9998 135.81 95.5851 135.839 96.1891Z" fill="#581301"/>
<path d="M107.229 52.3507C107.281 52.3911 107.348 52.4087 107.413 52.3995C107.479 52.3903 107.539 52.3549 107.579 52.3015C107.619 52.248 107.637 52.181 107.627 52.1153C107.618 52.0497 107.583 51.9908 107.53 51.9514C107.53 51.9514 107.53 51.9514 107.53 51.9514C107.145 51.6666 106.775 51.4084 106.377 51.1448C99.4777 46.1706 89.6344 47.0702 84.2853 40.0403C83.9872 39.6705 83.7223 39.3153 83.4503 38.9226C83.7154 39.32 83.9738 39.6803 84.2657 40.0558C89.5041 47.2029 99.4718 46.5311 106.111 51.5388C106.498 51.8045 106.856 52.0647 107.229 52.3507Z" fill="#581301"/>
<path d="M97.466 35.3399C97.487 35.356 97.5136 35.363 97.5398 35.3593C97.5661 35.3556 97.5899 35.3415 97.606 35.3202C97.6221 35.2988 97.6291 35.272 97.6254 35.2458C97.6217 35.2195 97.6076 35.1959 97.5863 35.1801C97.5863 35.1801 97.5863 35.1801 97.5863 35.1801C97.4051 35.0458 97.2325 34.9245 97.046 34.8002C93.8331 32.4029 89.1108 33.0554 86.6558 29.6507C86.5156 29.474 86.3941 29.3094 86.2655 29.1233C86.3913 29.3113 86.5102 29.478 86.6479 29.6569C89.0575 33.108 93.8342 32.5486 96.9395 34.9576C97.1215 35.0828 97.2895 35.2049 97.466 35.3399Z" fill="#581301"/>
<path d="M97.6912 34.8039C97.687 34.8301 97.6725 34.8534 97.6509 34.8688C97.6293 34.8842 97.6023 34.8903 97.5759 34.8858C97.5496 34.8814 97.5261 34.8667 97.5107 34.8451C97.4953 34.8235 97.4894 34.7966 97.494 34.7705C97.494 34.7705 97.494 34.7705 97.494 34.7705C97.5334 34.5484 97.5754 34.3417 97.6256 34.1232C98.3133 30.1739 102.193 27.4037 101.638 23.2431C101.618 23.0185 101.593 22.8153 101.559 22.5917C101.597 22.8148 101.625 23.0176 101.648 23.2422C102.268 27.4054 98.4125 30.2806 97.8111 34.1645C97.7649 34.3804 97.7267 34.5846 97.6912 34.8039Z" fill="#581301"/>
<path d="M107.084 51.2686C107.073 51.3341 107.038 51.3926 106.984 51.4311C106.93 51.4696 106.862 51.4849 106.796 51.4739C106.73 51.4628 106.671 51.4262 106.632 51.3722C106.594 51.3182 106.579 51.2513 106.59 51.186C106.59 51.186 106.59 51.186 106.59 51.186C106.66 50.7992 106.737 50.4275 106.826 50.0459C108.197 43.1577 114.233 37.9443 113.736 30.7688C113.701 30.3848 113.648 30.0122 113.574 29.6296C113.656 30.0106 113.717 30.3823 113.761 30.7663C114.414 37.9647 108.458 43.396 107.29 50.1498C107.21 50.5248 107.143 50.8896 107.084 51.2686Z" fill="#581301"/>
</g>
<defs>
<filter id="filter0_f_25_3" x="29.2699" y="187.016" width="50.6025" height="76.3549" filterUnits="userSpaceOnUse" color-interpolation-filters="sRGB">
<feFlood flood-opacity="0" result="BackgroundImageFix"/>
<feBlend mode="normal" in="SourceGraphic" in2="BackgroundImageFix" result="shape"/>
<feGaussianBlur stdDeviation="1" result="effect1_foregroundBlur_25_3"/>
</filter>
<filter id="filter1_f_25_3" x="12.4061" y="151.442" width="83.3963" height="41.6296" filterUnits="userSpaceOnUse" color-interpolation-filters="sRGB">
<feFlood flood-opacity="0" result="BackgroundImageFix"/>
<feBlend mode="normal" in="SourceGraphic" in2="BackgroundImageFix" result="shape"/>
<feGaussianBlur stdDeviation="1" result="effect1_foregroundBlur_25_3"/>
</filter>
<filter id="filter2_d_25_3" x="35.5149" y="0" width="191.992" height="183.393" filterUnits="userSpaceOnUse" color-interpolation-filters="sRGB">
<feFlood flood-opacity="0" result="BackgroundImageFix"/>
<feColorMatrix in="SourceAlpha" type="matrix" values="0 0 0 0 0 0 0 0 0 0 0 0 0 0 0 0 0 0 127 0" result="hardAlpha"/>
<feOffset dx="3" dy="5"/>
<feGaussianBlur stdDeviation="1"/>
<feComposite in2="hardAlpha" operator="out"/>
<feColorMatrix type="matrix" values="0 0 0 0 0 0 0 0 0 0 0 0 0 0 0 0 0 0 0.5 0"/>
<feBlend mode="normal" in2="BackgroundImageFix" result="effect1_dropShadow_25_3"/>
<feBlend mode="normal" in="SourceGraphic" in2="effect1_dropShadow_25_3" result="shape"/>
</filter>
<filter id="filter3_f_25_3" x="40.9429" y="7.29993" width="175.96" height="164.537" filterUnits="userSpaceOnUse" color-interpolation-filters="sRGB">
<feFlood flood-opacity="0" result="BackgroundImageFix"/>
<feBlend mode="normal" in="SourceGraphic" in2="BackgroundImageFix" result="shape"/>
<feGaussianBlur stdDeviation="2.5" result="effect1_foregroundBlur_25_3"/>
</filter>
<linearGradient id="paint0_linear_25_3" x1="26.0134" y1="213.83" x2="63.0919" y2="250.492" gradientUnits="userSpaceOnUse">
<stop stop-color="#FB8B16"/>
<stop offset="0.5" stop-color="#FC7109"/>
<stop offset="0.75" stop-color="#B83A02"/>
<stop offset="1" stop-color="#631B01"/>
</linearGradient>
<linearGradient id="paint1_linear_25_3" x1="26.0134" y1="213.83" x2="63.0919" y2="250.492" gradientUnits="userSpaceOnUse">
<stop stop-color="#FB8B16"/>
<stop offset="0.5" stop-color="#FC7109"/>
<stop offset="0.75" stop-color="#B83A02"/>
<stop offset="1" stop-color="#631B01"/>
</linearGradient>
<linearGradient id="paint2_linear_25_3" x1="60.0657" y1="203.102" x2="30.9692" y2="159.832" gradientUnits="userSpaceOnUse">
<stop stop-color="#631B01"/>
<stop offset="0.25" stop-color="#B83A02"/>
<stop offset="0.5" stop-color="#FC7109"/>
<stop offset="1" stop-color="#FB8B16"/>
</linearGradient>
<linearGradient id="paint3_linear_25_3" x1="60.0657" y1="203.102" x2="30.9692" y2="159.832" gradientUnits="userSpaceOnUse">
<stop stop-color="#FB8B16"/>
<stop offset="0.5" stop-color="#FC7109"/>
<stop offset="0.75" stop-color="#B83A02"/>
<stop offset="1" stop-color="#631B01"/>
</linearGradient>
<linearGradient id="paint4_linear_25_3" x1="86.9693" y1="12.0349" x2="162.275" y2="139.421" gradientUnits="userSpaceOnUse">
<stop stop-color="#FB8B16"/>
<stop offset="0.5" stop-color="#FC7109"/>
<stop offset="0.75" stop-color="#B83A02"/>
<stop offset="1" stop-color="#631B01"/>
</linearGradient>
</defs>
</svg>
